STARTFONT 2.1
FONT -FontForge-Fontdiner Swanky-Book-R-Normal--32-320-72-72-P-202-ISO10646-1
SIZE 32 72 72
FONTBOUNDINGBOX 46 49 -8 -16
COMMENT "Generated by fontforge, http://fontforge.sourceforge.net"
COMMENT "Copyright (c) 2010 by Font Diner, Inc. All rights reserved."
STARTPROPERTIES 39
FOUNDRY "FontForge"
FAMILY_NAME "Fontdiner Swanky"
WEIGHT_NAME "Book"
SLANT "R"
SETWIDTH_NAME "Normal"
ADD_STYLE_NAME ""
PIXEL_SIZE 32
POINT_SIZE 320
RESOLUTION_X 72
RESOLUTION_Y 72
SPACING "P"
AVERAGE_WIDTH 202
CHARSET_REGISTRY "ISO10646"
CHARSET_ENCODING "1"
FONTNAME_REGISTRY ""
CHARSET_COLLECTIONS "ISO10646-1"
FONT_NAME "FontdinerSwanky-Regular"
FACE_NAME "Fontdiner Swanky Regular"
COPYRIGHT "Copyright (c) 2010 by Font Diner, Inc. All rights reserved."
FONT_VERSION "1.001"
FONT_ASCENT 26
FONT_DESCENT 6
UNDERLINE_POSITION -3
UNDERLINE_THICKNESS 2
X_HEIGHT 17
CAP_HEIGHT 19
RAW_ASCENT 799
RAW_DESCENT 200
NORM_SPACE 10
RELATIVE_WEIGHT 40
RELATIVE_SETWIDTH 50
SUPERSCRIPT_X 0
SUPERSCRIPT_Y 14
SUPERSCRIPT_SIZE 20
SUBSCRIPT_X 0
SUBSCRIPT_Y 4
SUBSCRIPT_SIZE 20
AVG_LOWERCASE_WIDTH 203
AVG_UPPERCASE_WIDTH 247
ENDPROPERTIES
CHARS 231
STARTCHAR space
ENCODING 32
SWIDTH 320 0
DWIDTH 10 0
BBX 1 1 0 0
BITMAP
00
ENDCHAR
STARTCHAR exclam
ENCODING 33
SWIDTH 305 0
DWIDTH 10 0
BBX 10 27 0 0
BITMAP
1FC0
1FC0
1F80
1F80
1F80
1F80
1F80
1F80
1F00
1F00
1F00
1F00
1F00
1E00
3E00
3E00
3E00
3E00
3C00
3C00
3C00
0000
1000
7C00
FC00
FC00
7C00
ENDCHAR
STARTCHAR quotedbl
ENCODING 34
SWIDTH 369 0
DWIDTH 12 0
BBX 12 8 0 13
BITMAP
FBF0
F9E0
79E0
79E0
79E0
79E0
79E0
79E0
ENDCHAR
STARTCHAR numbersign
ENCODING 35
SWIDTH 702 0
DWIDTH 22 0
BBX 22 21 0 1
BITMAP
03C1C0
07C3C0
0783C0
0783C0
7FC3C0
7FFFFC
7FFFFC
7FFFFC
078380
078380
078780
078780
070780
FFFFF8
FFFFF8
FFFFF8
FFFFF8
0F0780
0F0780
0F0780
0F0F80
ENDCHAR
STARTCHAR dollar
ENCODING 36
SWIDTH 545 0
DWIDTH 17 0
BBX 17 27 0 -4
BITMAP
03C000
03C000
03C000
03C100
0FE100
3FF900
7FFF00
781F00
F80F00
F80700
FE0300
7FC100
3FF900
1FFE00
4FFF00
43FF80
607F80
701F80
780F80
7E0F80
7FFF00
6FFE00
C3F000
81E000
01E000
01E000
03E000
ENDCHAR
STARTCHAR percent
ENCODING 37
SWIDTH 657 0
DWIDTH 21 0
BBX 22 27 0 -2
BITMAP
000300
0003C0
3F07C0
7F87C0
F3CF80
F1CF80
F3CF00
73DF00
7F9E00
3F3E00
003C00
003C00
007C00
007800
00F800
00F000
00F000
01E3F0
01E7F8
03EF38
03CE3C
03CE3C
078F38
0787F8
0F03F0
0F0000
010000
ENDCHAR
STARTCHAR ampersand
ENCODING 38
SWIDTH 668 0
DWIDTH 21 0
BBX 25 28 1 -4
BITMAP
07E00000
1FF80000
3E7C0000
3C3C0000
3C3C0000
3C1C0000
3C3C0000
3E3C0000
1F780000
1FF00000
0FE20000
07C10000
1FE18000
3FF08000
7DF8C000
78FCE000
F87FF000
F87FB800
F83F8080
FC1F8F00
FFBFFC00
7FFFF000
3FF7E000
1FC78000
00070000
000C0000
00080000
00100000
ENDCHAR
STARTCHAR quotesingle
ENCODING 39
SWIDTH 177 0
DWIDTH 6 0
BBX 5 8 0 13
BITMAP
F8
F8
78
78
78
78
78
78
ENDCHAR
STARTCHAR parenleft
ENCODING 40
SWIDTH 384 0
DWIDTH 12 0
BBX 11 32 2 -5
BITMAP
0060
0180
0700
0F00
1E00
3C00
7C00
7800
F800
F800
F800
F800
F000
F000
F000
F000
F000
F000
F800
F800
F800
F800
7800
7C00
7C00
3E00
1E00
1F00
0700
0380
00C0
0020
ENDCHAR
STARTCHAR parenright
ENCODING 41
SWIDTH 375 0
DWIDTH 12 0
BBX 11 32 0 -5
BITMAP
8000
7000
3800
1E00
1F00
0F00
0F80
0780
07C0
07C0
03C0
03C0
03E0
03E0
03E0
03E0
03E0
03E0
03E0
03C0
07C0
07C0
07C0
0F80
0F80
0F00
1F00
1E00
3C00
7000
6000
8000
ENDCHAR
STARTCHAR asterisk
ENCODING 42
SWIDTH 640 0
DWIDTH 21 0
BBX 21 20 0 0
BITMAP
060C00
1F0E00
1F1F80
0F9F80
079F00
03FE00
83FC00
7DFC78
7FFFF0
FFFFF0
FFFFF0
FDF8F0
03FC00
07FE00
07BF00
0F9F80
1F1F80
0F1E00
060800
020000
ENDCHAR
STARTCHAR plus
ENCODING 43
SWIDTH 607 0
DWIDTH 19 0
BBX 19 19 0 1
BITMAP
01F000
01F000
01F000
01F000
01F000
01F000
E1F000
FFFFE0
FFFFE0
FFFFE0
FFFFE0
FDF000
01F000
01F000
01F000
01F000
00F000
00F000
00F000
ENDCHAR
STARTCHAR comma
ENCODING 44
SWIDTH 226 0
DWIDTH 7 0
BBX 7 9 0 -7
BITMAP
7C
7E
FE
7E
7E
1C
18
30
20
ENDCHAR
STARTCHAR hyphen
ENCODING 45
SWIDTH 549 0
DWIDTH 18 0
BBX 14 6 2 8
BITMAP
FE00
FFFC
FFFC
FFFC
FFF8
F800
ENDCHAR
STARTCHAR period
ENCODING 46
SWIDTH 226 0
DWIDTH 7 0
BBX 7 6 0 -3
BITMAP
18
7C
FE
FE
7E
38
ENDCHAR
STARTCHAR slash
ENCODING 47
SWIDTH 600 0
DWIDTH 19 0
BBX 21 30 -1 -2
BITMAP
0000C0
0001E0
0001F8
0003F8
0003F0
0007F0
000FE0
000FC0
001FC0
001F80
003F00
003F00
007E00
00FE00
00FC00
01F800
01F800
03F000
03E000
07E000
0FC000
0FC000
1F8000
1F0000
3F0000
3E0000
7E0000
FC0000
780000
380000
ENDCHAR
STARTCHAR zero
ENCODING 48
SWIDTH 740 0
DWIDTH 24 0
BBX 22 20 1 0
BITMAP
03FF00
0FFFC0
1FFFE0
3F83F0
7E01F8
FC01F8
FC00FC
F800FC
F800FC
F8007C
F8007C
F800FC
F800FC
FC00F8
7C01F8
7E03F0
3F87E0
1FFFC0
07FF80
01FC00
ENDCHAR
STARTCHAR one
ENCODING 49
SWIDTH 503 0
DWIDTH 16 0
BBX 20 24 -2 -1
BITMAP
003C00
03FC00
FFFC00
1FFC00
00FC00
00FC00
00FC00
00FC00
00FC00
00FC00
00FC00
00F800
00F800
00F800
00F800
00F800
00F800
00F800
007800
007800
007800
01FE00
07FF80
7FFFF0
ENDCHAR
STARTCHAR two
ENCODING 50
SWIDTH 638 0
DWIDTH 20 0
BBX 20 26 0 -1
BITMAP
400000
400000
60FC00
73FF00
37FFC0
3F8FC0
3E03E0
3C03E0
3801F0
3801E0
3003E0
3003E0
1007E0
100FC0
203FA0
00FE20
03F820
07E060
1F8060
3F00E0
3E00E0
7C01E0
FFFFE0
FFFFE0
FFFFE0
07FFE0
ENDCHAR
STARTCHAR three
ENCODING 51
SWIDTH 620 0
DWIDTH 20 0
BBX 20 28 -1 -3
BITMAP
400000
400000
602000
21FE00
37FF80
3FFFC0
3F07E0
1C03E0
1C01E0
1801F0
1001E0
1003E0
1007E0
00FFC0
00FFC0
00FFE0
100FF0
1007F0
1003F0
1803F0
3803F0
3C03F0
3F0FE0
3FFFC0
67FF80
61FE00
400000
800000
ENDCHAR
STARTCHAR four
ENCODING 52
SWIDTH 606 0
DWIDTH 19 0
BBX 21 27 -2 -2
BITMAP
000080
000080
000180
000380
000780
000F80
000F80
001F80
003F80
007F80
00FF80
01FF80
01EF88
03CF88
078F98
0F0F18
1E0F38
3FFFF8
7FFFF0
FFFFF0
000F30
000F10
000F10
000F08
000F08
007FC0
07FFF8
ENDCHAR
STARTCHAR five
ENCODING 53
SWIDTH 610 0
DWIDTH 20 0
BBX 19 26 0 -2
BITMAP
000040
003FC0
1FFFC0
FFFFC0
FFFFC0
FE01C0
780080
780080
780080
7FF880
7FFE00
3FFF80
3C7F80
301FC0
200FC0
0007E0
4007E0
2007C0
6007C0
700FC0
7C1FC0
7FFF80
6FFF00
47FE00
81F800
800000
ENDCHAR
STARTCHAR six
ENCODING 54
SWIDTH 619 0
DWIDTH 20 0
BBX 20 29 0 -2
BITMAP
000080
000080
000080
000180
000180
03F980
07FF80
0FFF80
1FFFC0
3F87C0
3F01C0
7E00C0
7E2040
7FFF20
7FFF80
FF8FC0
FE07E0
FC03E0
FC03F0
FC01F0
FC01F0
FC01F0
FC01F0
7C03E0
7C03E0
3E07C0
1FFF80
0FFF00
03FC00
ENDCHAR
STARTCHAR seven
ENCODING 55
SWIDTH 598 0
DWIDTH 19 0
BBX 21 25 0 -2
BITMAP
FF8000
FFFFF8
7FFFF0
7FFFF0
7807F0
3807E0
380FE0
300FC0
100FC0
100F80
101F80
001F80
001F00
001F00
003E00
003E00
003E00
003C00
007C00
007800
007800
01F800
07FE00
1FFF80
200FF0
ENDCHAR
STARTCHAR eight
ENCODING 56
SWIDTH 642 0
DWIDTH 21 0
BBX 21 26 0 -3
BITMAP
006000
03FE00
0FFF80
1F8FC0
3F07C0
3E03E0
3E03E0
7E03E0
3E03E0
3E03E0
3F07E0
1F8FC0
0FFF80
3FFFC0
7FFFE0
7F07F0
FE03F0
FC01F8
FC01F8
FC01F8
FE03F0
7E03F0
7F0FE0
3FFFC0
0FFF80
01FC00
ENDCHAR
STARTCHAR nine
ENCODING 57
SWIDTH 610 0
DWIDTH 20 0
BBX 19 27 0 -4
BITMAP
03F800
0FFE00
1FFF00
3F0F80
7C07C0
7C07C0
FC03E0
F803E0
F803E0
FC03E0
FC07E0
FC07E0
7E0FE0
3FFFE0
1FFFE0
0FFFE0
43F7E0
2007C0
300FC0
3C0F80
3FFF80
3FFF00
3FFE00
19F800
100000
100000
100000
ENDCHAR
STARTCHAR colon
ENCODING 58
SWIDTH 223 0
DWIDTH 7 0
BBX 7 14 0 -3
BITMAP
38
FC
FE
FE
7C
10
00
00
30
7C
FE
FE
FC
38
ENDCHAR
STARTCHAR semicolon
ENCODING 59
SWIDTH 228 0
DWIDTH 7 0
BBX 7 18 0 -7
BITMAP
38
7C
FE
FE
7C
10
00
00
00
7C
FC
FE
FE
7C
1C
38
30
40
ENDCHAR
STARTCHAR less
ENCODING 60
SWIDTH 563 0
DWIDTH 18 0
BBX 19 21 0 0
BITMAP
000040
0001C0
0007C0
001FC0
003FE0
00FFE0
03FF80
07FE00
1FF800
7FE000
FF8000
3F8000
0FC000
07E000
01F000
00FC00
003E00
001F00
0007C0
0001C0
000080
ENDCHAR
STARTCHAR equal
ENCODING 61
SWIDTH 531 0
DWIDTH 17 0
BBX 17 12 0 3
BITMAP
FF8000
FFFF80
FFFF80
FFFF80
FFFF80
800000
000000
FFFF80
FFFF80
FFFF80
FFFF80
FFFF80
ENDCHAR
STARTCHAR greater
ENCODING 62
SWIDTH 576 0
DWIDTH 18 0
BBX 19 21 0 0
BITMAP
600000
700000
7C0000
7F0000
FF8000
FFE000
3FF800
0FFC00
03FF00
00FFC0
003FE0
003F80
007E00
00FC00
01F000
07E000
0F8000
1F0000
3C0000
700000
200000
ENDCHAR
STARTCHAR question
ENCODING 63
SWIDTH 592 0
DWIDTH 19 0
BBX 19 29 0 -1
BITMAP
200000
200000
300000
3FF800
7FFE00
787F80
601F80
4007C0
8007E0
8003E0
8003E0
0007E0
0007E0
000FC0
0C1FC0
0FFF80
0FFF00
0FF000
0F8000
0F8000
0F0000
0F0000
010000
000000
7E0000
7E0000
7F0000
7E0000
3C0000
ENDCHAR
STARTCHAR at
ENCODING 64
SWIDTH 792 0
DWIDTH 25 0
BBX 26 23 0 -1
BITMAP
00040000
00FFE000
03FFF800
0FC07C00
1F001E00
3E1F0F00
3C7FC780
78E1C780
78E1E3C0
F0F1E3C0
F0E0E3C0
F001E3C0
F0FFE3C0
F1FFE3C0
F1E1E3C0
F9E1E3C0
79F1E380
78FFE780
3C3DE700
3E01EF00
1F80FC00
07E03000
00FF8000
ENDCHAR
STARTCHAR A
ENCODING 65
SWIDTH 788 0
DWIDTH 25 0
BBX 37 28 -5 -7
BITMAP
01FFE00000
001FF00000
0007F00000
0001F80000
0001F80000
0001FC0000
0003FC0000
0003FE0000
00077E0000
00073F0000
000E3F0000
000C1F8000
001C1F8000
003FFFC000
003FFFC000
007FFFE000
007007E000
00E003F000
00E003F000
01C003F800
0FF001F800
3FF801FC00
DFFE00FE00
000100FFE0
000001FFF8
000001FE00
000003E000
00000E0000
ENDCHAR
STARTCHAR B
ENCODING 66
SWIDTH 774 0
DWIDTH 25 0
BBX 29 25 -4 -4
BITMAP
FFFFF800
1FFFFF00
07FFFFC0
01F81FF0
01F803F0
01F801F8
01F800F8
01F801F8
00F803F0
00F80FE0
00FFFFC0
00FFFF80
00FFFF00
00FCFFC0
00FC0FE0
00FC07E0
00FC03F0
00FC03F0
00FC07F0
00FC1FE0
007CFFC0
01FFFF00
03FFF800
0FFE0000
7C000000
ENDCHAR
STARTCHAR C
ENCODING 67
SWIDTH 766 0
DWIDTH 25 0
BBX 23 27 1 -3
BITMAP
000002
000002
00FF06
03FFCE
0FFFEE
1FFBFC
3F807C
7F003C
7E001C
FE000C
FC000C
FC0008
FC0004
FC0000
FC0000
FC0000
FC0008
FC0008
7E0008
7E000C
3F001C
3F803C
1FFBFC
07FFF4
03FFC2
007E02
000002
ENDCHAR
STARTCHAR D
ENCODING 68
SWIDTH 833 0
DWIDTH 27 0
BBX 31 23 -4 -1
BITMAP
E0000000
1FFFFE00
07FFFFC0
01FFFFE0
007F03F0
007F01F8
007E00FC
003E007C
003E007C
003E007E
003E007E
003E007E
003E007E
003E007E
003E007C
003E007C
003E00FC
003E00F8
003E01F0
003FFFF0
00FFFFC0
03FFFF00
1FFC0000
ENDCHAR
STARTCHAR E
ENCODING 69
SWIDTH 781 0
DWIDTH 25 0
BBX 27 24 -3 -1
BITMAP
00003FE0
87FFFFE0
7FFFFFE0
07FC01E0
00FC01E0
00FC10C0
00FC10C0
00FC1040
00FC3040
00FC3040
00FC7020
00FC7000
00FFF040
00FFF040
00FFF040
00F8F0C0
00F870C0
00F830C0
00F831C0
00F811C0
00F801C0
03FFFFC0
0FFFFFC0
7FFFFFC0
ENDCHAR
STARTCHAR F
ENCODING 70
SWIDTH 731 0
DWIDTH 23 0
BBX 25 25 -3 -2
BITMAP
00001F80
01FFFF80
FFFFFF80
0FFF0380
00F80380
00F80180
00F81180
00F82180
00F82080
00F86080
00F86080
00F8E080
00FFE080
00FFE000
00FFE000
00F8E000
00F86000
00F86000
00F82000
00F82000
00F82000
00F80000
03FE0000
0FFF8000
7FFFF000
ENDCHAR
STARTCHAR G
ENCODING 71
SWIDTH 828 0
DWIDTH 27 0
BBX 28 25 1 -1
BITMAP
00000200
00000600
00FF0E00
07FFFC00
0FFFFC00
1FE3FC00
3F807C00
7F003C00
7E001C00
FE000C00
FC000C00
FC000400
FC000400
FC3FFFF0
FC07FFC0
FC00FE00
FC003E00
FE003E00
7E003E00
7F007E00
3F007E00
3FC0FE00
1FFFFE00
07FFC600
01FF0200
ENDCHAR
STARTCHAR H
ENCODING 72
SWIDTH 797 0
DWIDTH 26 0
BBX 31 25 -3 -3
BITMAP
0007FFFE
00003FE0
FFFF8F80
1FFC0F80
07F00F80
03F00F80
03F00F80
03F00F80
03F00F80
03F00F80
03F00F80
03F00F80
03FFFF80
03FFFF80
03FF8F80
03F00F80
03F00F80
03F00F80
03F00F80
03E00F80
01E03FF0
01E3FFFE
03F00000
1FFE0000
FFFFE000
ENDCHAR
STARTCHAR I
ENCODING 73
SWIDTH 445 0
DWIDTH 14 0
BBX 20 25 -3 -3
BITMAP
FFFFF0
0FFF80
03FC00
00F800
00F800
00F800
00F800
00F800
00F800
00F800
00F800
00F800
00F800
00F800
00F800
00F800
00F800
00F800
00F800
00F800
00F800
00F800
01FC00
07FF80
7FFFF0
ENDCHAR
STARTCHAR J
ENCODING 74
SWIDTH 718 0
DWIDTH 23 0
BBX 31 28 -4 -4
BITMAP
0000000E
000003F0
0000FFC0
01FFFF80
001FFE00
00003E00
00003E00
00003E00
00003F00
00003F00
00003F00
00001F00
00001F00
00001F00
00001F00
00001F00
00001F00
00001F00
FFFC1F00
1FF01F00
07C01F00
03C01F00
03C03F00
01E03E00
01F07C00
00FFFC00
007FF000
001FC000
ENDCHAR
STARTCHAR K
ENCODING 75
SWIDTH 934 0
DWIDTH 30 0
BBX 38 27 -2 -3
BITMAP
0000700000
FFFF800000
1FFE7FFFE0
03F80FFF80
01F803FC00
01F803E000
01F80FC000
01F81F0000
01F07E0000
01F1F80000
01F3E00000
01FFF00000
01FFF80000
01FC7C0000
01F07E0000
01F03E0000
01F01F0000
01F01F8000
01F00FC000
01F007E000
01F003F000
01F803F000
07FF01F800
3FFFF0FC00
400009FF00
00000FFFE0
00003FFFFC
ENDCHAR
STARTCHAR L
ENCODING 76
SWIDTH 712 0
DWIDTH 23 0
BBX 26 25 -3 0
BITMAP
FFFFF800
0FFF8000
01FE0000
00FC0000
00FC0000
00FC0000
00FC0000
00FC0000
00FC0000
00FC0000
00FC0000
00FC0040
00FC0040
00FC00C0
00FC00C0
007C00C0
007C01C0
007C01C0
007C03C0
007C03C0
007C03C0
00FFFFC0
03FFFFC0
0FFFFFC0
7F000000
ENDCHAR
STARTCHAR M
ENCODING 77
SWIDTH 1033 0
DWIDTH 33 0
BBX 39 24 -3 -1
BITMAP
FFFC003FFE
1FFC003FE0
03FE007F80
00FE007F00
00FF00FF00
00FF00FF00
00FF81FF00
00FF83FF00
00FFC3BF00
00FFC7BF00
00F7E73F00
00F7EF3F00
00F3FE3F00
00F3FE3F00
00F1FC3F00
00F1FC3E00
0070F83E00
0070783E00
0070703E00
0070303E00
0070203E00
00F820FFC0
07FF87FFFC
7FFFF80002
ENDCHAR
STARTCHAR N
ENCODING 78
SWIDTH 840 0
DWIDTH 27 0
BBX 33 25 -3 -2
BITMAP
FFF9FFFF80
1FFC1FFC00
07FE07F000
01FF01E000
00FF81E000
00FF81C000
00FFC1C000
00FFE1C000
00EFF1C000
00E7F9C000
00E3F9C000
00E1FDC000
00E0FFC000
00E0FFC000
00E07FC000
00E03FC000
00E01FC000
00E00FC000
00E007C000
01F003C000
07FE01C000
1FFFC1C000
FFFFF8C000
0000004000
0000002000
ENDCHAR
STARTCHAR O
ENCODING 79
SWIDTH 808 0
DWIDTH 26 0
BBX 24 20 1 0
BITMAP
007E00
03FFC0
0FFFF0
3FE3F8
7F80FC
7E007E
FE007F
FC003F
FC003F
FC003F
FC003F
FC003F
FC003F
FC003F
7E007E
7E00FE
3F81FC
1FFFF8
0FFFE0
01FF80
ENDCHAR
STARTCHAR P
ENCODING 80
SWIDTH 746 0
DWIDTH 24 0
BBX 27 22 -3 -1
BITMAP
C0000000
3FFFF800
07FFFF00
01FFFFC0
00F807E0
00F803E0
00F801E0
00F803E0
00F807C0
00F87F80
00FFFE00
00FFF000
00F80000
00F80000
00F80000
00F80000
00F80000
00F80000
00FC0000
03FE0000
0FFFC000
7FFFF800
ENDCHAR
STARTCHAR Q
ENCODING 81
SWIDTH 789 0
DWIDTH 25 0
BBX 28 31 1 -10
BITMAP
007E0000
03FFC000
0FFFF000
1FE7F800
3F01FC00
7E00FC00
7E007E00
FC007E00
FC003E00
FC003E00
FC003E00
FC003E00
FC007E00
FC007E00
7E007C00
7E00FC00
3F81F800
1FFFF000
07FFE000
01FF8000
000F8000
000F8000
000FC000
0007E000
0007FFF0
0007FF80
000FFC00
001FC000
003E0000
00E00000
01000000
ENDCHAR
STARTCHAR R
ENCODING 82
SWIDTH 826 0
DWIDTH 26 0
BBX 38 29 -3 -8
BITMAP
FF80000000
1FFFFC0000
07FFFF8000
01FFFFC000
00F807E000
00F801E000
00F801F000
00F801E000
00F807C000
00FFFF8000
00FFFE0000
00FFFC0000
00FC3E0000
00FC3E0000
00FC1F0000
00FC1F8000
00FC0F8000
00FC0FC000
00FC07E000
03FF07F000
0FFFE3F000
7FFFF9FFFC
000001FFE0
000000FF80
000001FC00
000003F000
0000078000
00000E0000
0000180000
ENDCHAR
STARTCHAR S
ENCODING 83
SWIDTH 661 0
DWIDTH 21 0
BBX 21 27 0 -4
BITMAP
000008
000008
03F810
1FFF30
3FFFF0
7E07F0
7C01F0
FC0070
FC0030
FF8010
7FF810
7FFF00
3FFFC0
0FFFE0
01FFF0
201FF8
2007F8
3003F8
3001F8
3C01F0
3E03F0
3FFFE0
27FF80
20FE00
200000
400000
400000
ENDCHAR
STARTCHAR T
ENCODING 84
SWIDTH 754 0
DWIDTH 24 0
BBX 22 23 1 -1
BITMAP
C00000
FFFFFC
FFFFFC
70FCFC
70FC38
60FC18
60FC18
60FC18
40FC08
40FC08
40FC08
40FC08
00F800
00F800
00F800
00F800
00F800
00F800
00F800
01FC00
07FF00
1FFFC0
203FF0
ENDCHAR
STARTCHAR U
ENCODING 85
SWIDTH 725 0
DWIDTH 23 0
BBX 29 22 -3 -1
BITMAP
C000FFF8
1FFF1FC0
07F80780
03F00700
03E00700
03E00700
03E00700
03E00700
07E00700
07E00700
07E00700
07E00700
07E00700
07E00700
07E00700
03F00700
03F00F00
03F80E00
01FE7E00
00FFFC00
007FF000
000F8000
ENDCHAR
STARTCHAR V
ENCODING 86
SWIDTH 786 0
DWIDTH 25 0
BBX 33 26 -4 -3
BITMAP
0001C00000
001E200000
03FC1F0000
3FF807FC00
FFF001FF80
01F800F000
01F801C000
00FC01C000
00FC038000
007E038000
007E070000
003E070000
003F0E0000
001F0E0000
001F9C0000
000F9C0000
000FF80000
0007F80000
0007F00000
0003F00000
0003E00000
0003E00000
0001C00000
0001C00000
0000800000
0000800000
ENDCHAR
STARTCHAR W
ENCODING 87
SWIDTH 1026 0
DWIDTH 33 0
BBX 42 24 -4 -3
BITMAP
000FE0E00000
FFFF001FF000
1FFC0407FFC0
03F00C01F800
01F80E00E000
01F80E01C000
01F81F01C000
00FC1F818000
00FC3F838000
007C3FC38000
007E7FC70000
003E7FE70000
003FFFE70000
003FF3FE0000
001FF3FE0000
001FE1FC0000
000FE1FC0000
000FC0FC0000
0007C0F80000
000780780000
000780700000
000300300000
000300300000
000200200000
ENDCHAR
STARTCHAR X
ENCODING 88
SWIDTH 860 0
DWIDTH 28 0
BBX 33 22 -3 -2
BITMAP
0001E00000
7FFF000300
07FC3FFC00
00FC0FF000
007E07C000
003F0F0000
001F9E0000
001FFC0000
000FF80000
0007F00000
0003F00000
0007F80000
000FFC0000
003EFE0000
007C7F0000
00F83F0000
01E03F8000
07E01FC000
3FF00FE000
FFFE1FFC00
00007FFF80
0001C00000
ENDCHAR
STARTCHAR Y
ENCODING 89
SWIDTH 848 0
DWIDTH 27 0
BBX 33 23 -4 -2
BITMAP
007F800000
FFFE000000
0FF81FF080
01FC03FF00
00FE01F800
007F00E000
003F01C000
001F838000
000FC70000
0007EE0000
0003FC0000
0001F80000
0000F00000
0000F00000
0000F00000
0000F80000
0000F80000
0000F80000
0000F80000
0000F80000
0000FC0000
0007FF0000
007FFFF800
ENDCHAR
STARTCHAR Z
ENCODING 90
SWIDTH 685 0
DWIDTH 22 0
BBX 23 20 0 0
BITMAP
00001E
FFFFFC
7FFFF8
7FFFF8
7807F0
300FE0
301FC0
303F80
307F80
107F04
10FE04
01FC08
03FC08
07F818
0FF038
0FE038
1FF078
3FFFF8
7FFFF8
800018
ENDCHAR
STARTCHAR bracketleft
ENCODING 91
SWIDTH 380 0
DWIDTH 12 0
BBX 12 30 2 -4
BITMAP
FFF0
FF80
FE00
F800
F800
F800
F800
F800
F800
F800
F800
F800
F800
F800
F800
F800
F800
F800
F800
F800
F800
7800
7800
7800
7800
7800
7800
7E00
7F80
7FE0
ENDCHAR
STARTCHAR backslash
ENCODING 92
SWIDTH 680 0
DWIDTH 22 0
BBX 21 30 0 -2
BITMAP
0C0000
3C0000
FE0000
7E0000
7F0000
3F0000
1F8000
1FC000
0FC000
0FE000
07E000
03F000
03F800
01F800
00FC00
00FC00
007E00
007E00
003F00
001F80
001F80
000FC0
000FC0
0007E0
0003E0
0003F0
0001F8
0000F8
0000F8
000060
ENDCHAR
STARTCHAR bracketright
ENCODING 93
SWIDTH 371 0
DWIDTH 12 0
BBX 13 30 -2 -4
BITMAP
FFF8
1FF8
07F8
01F8
01F0
01F0
01F0
01F0
01F0
00F0
00F0
00F0
00F0
00F0
00F0
00F0
00F0
00F0
00F0
00F0
00F0
00F0
00F0
00F0
00F0
00F0
00F0
03F0
0FF0
7FF0
ENDCHAR
STARTCHAR asciicircum
ENCODING 94
SWIDTH 671 0
DWIDTH 22 0
BBX 22 20 0 9
BITMAP
002000
002000
007000
007000
00F800
01F800
01FC00
03FE00
03FE00
07FF00
0FEF80
0FC780
1FC3C0
1F81E0
3F81E0
7F00F0
7F0070
FE0038
FE0014
0C0000
ENDCHAR
STARTCHAR underscore
ENCODING 95
SWIDTH 840 0
DWIDTH 27 0
BBX 27 6 0 -3
BITMAP
00000020
FFFFFFE0
FFFFFFE0
FFFFFFE0
FFFFFFE0
FFFFFFE0
ENDCHAR
STARTCHAR grave
ENCODING 96
SWIDTH 707 0
DWIDTH 23 0
BBX 7 8 9 19
BITMAP
08
38
F8
7C
3C
3C
1E
1C
ENDCHAR
STARTCHAR a
ENCODING 97
SWIDTH 572 0
DWIDTH 18 0
BBX 20 19 1 -1
BITMAP
03C000
1FF800
3FFC00
783E00
781E00
FC1F00
781F00
781F00
021F00
3FFF00
7FFF00
F81E00
F83E00
F83E00
FC3E00
7FFE00
3FFF00
003FC0
003E30
ENDCHAR
STARTCHAR b
ENCODING 98
SWIDTH 723 0
DWIDTH 23 0
BBX 27 29 -4 -5
BITMAP
00380000
BFF80000
7FF80000
07F80000
01F80000
01F80000
01F80000
00F80000
00F80000
00F80000
00F80000
00F80000
00F80000
00F80000
00F9F800
00FFFF00
00FFFF80
00F81FC0
00F80FE0
00F807E0
00F007E0
00F007E0
00F007C0
00F00FC0
00F01F80
01FFFF00
03FFFC00
07FFE000
1F800000
ENDCHAR
STARTCHAR c
ENCODING 99
SWIDTH 589 0
DWIDTH 19 0
BBX 18 18 1 -2
BITMAP
01F000
07FE00
1FFF00
3F0F80
7E0F80
7C0F80
FC0F80
F80700
F80000
F80000
F80040
FC0080
7C0180
7E0380
3FDF00
1FFF00
0FFE00
03F000
ENDCHAR
STARTCHAR d
ENCODING 100
SWIDTH 713 0
DWIDTH 23 0
BBX 25 30 1 -5
BITMAP
007FE000
000FFC00
0001F800
0000F800
0000F800
0000F800
0000F800
0001F800
0001F800
0001F800
0001F000
0001F000
0001F000
07FDF000
1FFFF000
3FFFF000
7E01F000
7C01F000
FC01E000
F801E000
F801E000
F801E000
7C01E000
7C01E000
3F01E000
1FFFE000
0FFFC000
01FFF000
0003FF80
0003F000
ENDCHAR
STARTCHAR e
ENCODING 101
SWIDTH 593 0
DWIDTH 19 0
BBX 18 17 1 -2
BITMAP
01F000
0FFC00
1FFE00
3FFF00
7C0F80
7C0F80
F80780
F807C0
FFFFC0
FFFFC0
F80000
F80000
7C0080
3E0300
3FFE00
0FFC00
03F000
ENDCHAR
STARTCHAR f
ENCODING 102
SWIDTH 507 0
DWIDTH 16 0
BBX 20 44 -2 -13
BITMAP
000E00
003FC0
007FE0
00F9E0
00F0F0
01F1F0
01E1F0
01E0F0
01E060
03E000
03E000
01E000
01E000
01E000
01F000
3FFFC0
3FFFC0
3FFFC0
01F000
01F000
01F000
00F800
00F800
00F800
00F800
00F800
00F800
00F800
00F800
007800
007C00
007C00
007C00
007C00
007C00
207C00
787C00
F87C00
F87800
787800
78F800
3FF000
1FE000
078000
ENDCHAR
STARTCHAR g
ENCODING 103
SWIDTH 606 0
DWIDTH 19 0
BBX 21 36 0 -16
BITMAP
0001E0
0003F0
0007F8
000EF8
03FEF8
0FFE70
1F1F00
3E0F80
3C07C0
7C07C0
7C03C0
7803E0
7C03E0
7C03C0
7C07C0
3C07C0
3E0F80
1FBF00
0FFE00
1FF000
3E0000
3FFC00
3FFF80
0FFFC0
3FDFE0
7E03F0
7C01F0
F801F0
F800F0
F800F0
F801F0
7C01F0
7E03E0
3FFFC0
0FFF80
01FC00
ENDCHAR
STARTCHAR h
ENCODING 104
SWIDTH 678 0
DWIDTH 22 0
BBX 29 29 -4 -2
BITMAP
01F80000
FFF80000
1FF80000
01F80000
01F80000
01F80000
01F80000
01F80000
01F80000
01F80000
01F80000
00F80000
00F80000
00F80000
00FFE000
00FFFC00
00FFFE00
00F01F00
00F01F80
00F00F80
00F00F80
00F00F80
00F00F80
00F00F00
00F00F00
03FC0F00
0FFF0F00
10003FC0
0001FFF8
ENDCHAR
STARTCHAR i
ENCODING 105
SWIDTH 393 0
DWIDTH 13 0
BBX 15 25 -1 0
BITMAP
03E0
07E0
07F0
07F0
07E0
03C0
0000
0000
FFF0
3FE0
0FE0
03E0
03E0
03E0
03E0
03E0
03E0
03E0
03E0
03E0
03E0
03E0
07F0
1FF8
7FFE
ENDCHAR
STARTCHAR j
ENCODING 106
SWIDTH 385 0
DWIDTH 12 0
BBX 13 34 -2 -11
BITMAP
07C0
0FC0
0FE0
0FE0
0FC0
0780
0000
0000
5FF0
3FF0
07F0
01F0
01F0
01F0
01F0
01F0
01F0
00F0
00F8
00F8
00F8
00F8
00F8
00F8
00F8
00F8
7078
F878
F878
F0F8
F0F0
7FF0
3FE0
0F80
ENDCHAR
STARTCHAR k
ENCODING 107
SWIDTH 749 0
DWIDTH 24 0
BBX 32 29 -4 -3
BITMAP
00780000
FFF80000
07F80000
01F80000
01F80000
01F90006
01F8FFF8
00F83FE0
00F80F00
00F83E00
00F87C00
00F8F000
00F9E000
00FBE000
00FFE000
00FFF000
00FCF800
00F8F800
00F87C00
00F83C00
00F83E00
00F81F00
00F80F00
00FC0F80
03FF07C0
0FFFE3FC
30000FFF
00001F80
00007000
ENDCHAR
STARTCHAR l
ENCODING 108
SWIDTH 369 0
DWIDTH 12 0
BBX 17 29 -4 -2
BITMAP
FFF800
07F800
00F800
00F800
00F800
00F800
00F800
00F800
00F800
00F800
00F800
00F800
00F800
00F800
00F800
00F800
00F800
00F800
00F800
00F800
00F800
00F800
00F800
00F800
00F800
007000
00F800
03FE00
1FFF80
ENDCHAR
STARTCHAR m
ENCODING 109
SWIDTH 990 0
DWIDTH 32 0
BBX 37 16 -3 2
BITMAP
0008000000
03F3E03800
FFFFF9FE00
1FFFFFFF00
03FFFFFF80
01F03F0F80
01F03E0780
01F03E0780
01F03E0780
01E03C0780
00E03C0780
00E03C0780
01F03C0F80
0FFE3C7FE0
30007E8078
0007FFC000
ENDCHAR
STARTCHAR n
ENCODING 110
SWIDTH 643 0
DWIDTH 21 0
BBX 26 16 -3 2
BITMAP
00080000
03F1E000
FFFFF800
1FFFFC00
03FFFC00
01F03E00
01F03E00
01F03E00
01F03E00
01E03E00
00E03E00
00E03C00
01F03C00
0FFC3C00
30027E00
0007FFC0
ENDCHAR
STARTCHAR o
ENCODING 111
SWIDTH 705 0
DWIDTH 23 0
BBX 22 15 0 0
BITMAP
03FF80
0FFFE0
3FC7F0
3F01F8
7C00FC
7C007C
FC007C
F8007C
FC007C
7C007C
7C00FC
3E01F8
1FC7F0
0FFFC0
03FF00
ENDCHAR
STARTCHAR p
ENCODING 112
SWIDTH 723 0
DWIDTH 23 0
BBX 27 26 -4 -8
BITMAP
00380000
FFF80000
1FF80000
03FFFC00
00FFFF00
00FC1F80
00F807C0
00F807C0
00F803E0
00F803E0
00F803E0
00F803E0
00F807C0
00F80FC0
00FFFF80
00FFFF00
00FFFC00
00F80000
00F80000
00780000
00780000
00780000
00780000
01FF0000
07FFE000
3FC01000
ENDCHAR
STARTCHAR q
ENCODING 113
SWIDTH 682 0
DWIDTH 22 0
BBX 26 25 0 -7
BITMAP
0003FFC0
0003FE00
03FFF800
0FFFF000
3FFFE000
7E03E000
7C03E000
F803E000
F803E000
F803E000
F803E000
7C03E000
7E03E000
3F8FE000
1FFFE000
0FFFE000
01E3E000
0003E000
0003E000
0003E000
0003E000
0003C000
000FF000
003FFC00
00FFFFC0
ENDCHAR
STARTCHAR r
ENCODING 114
SWIDTH 595 0
DWIDTH 19 0
BBX 22 19 -2 0
BITMAP
007020
07F3F8
FFF7FC
1FFFFC
01FDFC
01F87C
01F030
01F000
01F000
01F000
01F000
01F000
00F000
00F000
00F000
00FC00
03FF80
0FFFE0
7FC000
ENDCHAR
STARTCHAR s
ENCODING 115
SWIDTH 533 0
DWIDTH 17 0
BBX 16 21 1 -1
BITMAP
0002
0782
3FE2
7FFE
F87E
F01E
F00E
FC06
FF02
7FE2
3FF8
1FFE
87FE
C0FF
E03F
F01F
F81F
FFFE
DFFC
87F0
8000
ENDCHAR
STARTCHAR t
ENCODING 116
SWIDTH 422 0
DWIDTH 14 0
BBX 14 30 0 -1
BITMAP
0180
0380
0380
0380
0780
0780
0F80
3F00
FFF0
FFFC
FFFC
1F3C
1F00
1F00
1F00
1F00
1F00
1E00
3E00
3E00
3E00
3E04
3E04
3E08
3E08
3E18
3FF8
1FF0
0FF0
07C0
ENDCHAR
STARTCHAR u
ENCODING 117
SWIDTH 614 0
DWIDTH 20 0
BBX 25 18 -3 -2
BITMAP
FFC00000
3FCFFC00
0FC1FC00
07C07C00
07C07C00
07C07C00
07C07800
07C07800
07807800
07807800
07807800
07C07800
07C0F000
03FFF000
01FFF800
00FF7F80
00007C00
00008000
ENDCHAR
STARTCHAR v
ENCODING 118
SWIDTH 639 0
DWIDTH 20 0
BBX 28 21 -4 -3
BITMAP
00030000
00FC0000
FFFC0000
3FE3FC00
03E0FFF0
03F03F80
01F01C00
01F83800
00F83800
007C7000
007C7000
003EE000
003EE000
001FC000
001FC000
000F8000
000F8000
00070000
00030000
00020000
00020000
ENDCHAR
STARTCHAR w
ENCODING 119
SWIDTH 805 0
DWIDTH 26 0
BBX 35 19 -4 -1
BITMAP
003F040000
FFF823FFE0
0FE060FE00
03E0607000
03F0F07000
01F0F0F000
01F8F8E000
00F9F9E000
00FDFDC000
007FFFC000
007FFF8000
003F3F8000
003F3F0000
001E1F0000
001E1E0000
000C0E0000
000C0C0000
0004040000
0004040000
ENDCHAR
STARTCHAR x
ENCODING 120
SWIDTH 717 0
DWIDTH 23 0
BBX 31 19 -4 -1
BITMAP
0003E000
03FE0000
FFF9007C
01F8FFE0
00FC1F80
007E3E00
003F7800
001FF000
001FE000
000FC000
0007E000
000FF000
003FF800
007CF800
01F87C00
0FFC3E00
31FF9FC0
00007FFE
0003FE00
ENDCHAR
STARTCHAR y
ENCODING 121
SWIDTH 655 0
DWIDTH 21 0
BBX 22 32 -2 -14
BITMAP
800000
600000
3C1E00
1F87FC
0FE3FC
07C0FC
0FC0FC
0FC0FC
0F80FC
1F80FC
1F80FC
1F80FC
1F80FC
0FC0FC
0FFFFC
07FFF8
03FFF8
0000F8
0000F8
0000F8
0000F8
0000F8
0000F8
0400F8
0F00F8
1F00F8
1F01F0
1F01F0
0F03E0
0FCFE0
07FFC0
01FF00
ENDCHAR
STARTCHAR z
ENCODING 122
SWIDTH 549 0
DWIDTH 18 0
BBX 19 18 0 -1
BITMAP
807FE0
7FFFC0
7FFF80
701F00
703F00
707E00
30FC00
21FC00
21F880
23F080
07E180
0FE180
1FC380
1F8380
3FFB80
7FFF80
FFFF80
000080
ENDCHAR
STARTCHAR braceleft
ENCODING 123
SWIDTH 708 0
DWIDTH 23 0
BBX 18 30 2 -4
BITMAP
03FFC0
03FE00
03F800
03E000
03E000
03E000
03E000
03E000
03E000
03E000
03E000
03E000
03E000
07E000
3FE000
FFE000
07E000
03E000
03E000
03E000
03E000
01E000
01E000
01E000
01E000
01E000
01E000
01F800
01FE00
01FF80
ENDCHAR
STARTCHAR bar
ENCODING 124
SWIDTH 304 0
DWIDTH 10 0
BBX 6 29 2 -2
BITMAP
FC
FC
FC
FC
F8
F8
F8
F8
F8
F8
F8
F8
F8
F8
F8
F8
F8
F8
F8
F8
F8
F8
78
78
78
78
78
78
78
ENDCHAR
STARTCHAR braceright
ENCODING 125
SWIDTH 517 0
DWIDTH 17 0
BBX 18 30 0 -4
BITMAP
FFF000
1FF000
07F000
01F000
01F000
01F000
01F000
01F000
01F000
01F000
01F000
01F000
01F000
01F800
01FF00
01FFC0
01F800
01F000
01F000
01F000
01F000
01F000
01F000
01F000
01F000
01F000
01E000
07E000
1FE000
7FE000
ENDCHAR
STARTCHAR asciitilde
ENCODING 126
SWIDTH 466 0
DWIDTH 15 0
BBX 15 6 0 7
BITMAP
3E06
FFFE
FFFE
FFFE
E7FE
80F8
ENDCHAR
STARTCHAR uni00A0
ENCODING 160
SWIDTH 320 0
DWIDTH 10 0
BBX 1 1 0 0
BITMAP
00
ENDCHAR
STARTCHAR exclamdown
ENCODING 161
SWIDTH 305 0
DWIDTH 10 0
BBX 10 27 0 -10
BITMAP
0F80
0FC0
0FC0
0F80
0200
0000
0F00
0F00
0F00
1F00
1F00
1F00
1F00
1F00
3F00
3E00
3E00
3E00
3E00
3E00
7E00
7E00
7E00
7E00
7E00
FE00
7E00
ENDCHAR
STARTCHAR cent
ENCODING 162
SWIDTH 417 0
DWIDTH 13 0
BBX 14 26 0 -3
BITMAP
0780
0780
0780
0780
0780
0FE0
1FF0
3C78
7878
F078
F038
F000
F000
F000
F004
F004
F808
7C18
3FF0
1FE0
0FC0
0780
0780
0780
0780
0780
ENDCHAR
STARTCHAR sterling
ENCODING 163
SWIDTH 658 0
DWIDTH 21 0
BBX 21 24 0 -1
BITMAP
000008
000008
00FE18
03FF30
07FFF0
0FC3F0
0F81F0
0F80F0
1F0070
FFC030
FFFE30
FFFE20
FFFE20
078018
03C008
FFFE08
FFFE08
FFFE18
078018
078038
0FFFF8
0FFFF8
1FFFF8
3FFFF8
ENDCHAR
STARTCHAR currency
ENCODING 164
SWIDTH 358 0
DWIDTH 11 0
BBX 11 11 0 6
BITMAP
20C0
7FE0
FFE0
7FC0
39C0
31C0
39C0
3FC0
7FE0
F6E0
6040
ENDCHAR
STARTCHAR yen
ENCODING 165
SWIDTH 796 0
DWIDTH 26 0
BBX 30 21 -4 0
BITMAP
00FE0000
FFF04000
0FE03FFC
01F00FE0
00F80700
007C0E00
003E1C00
001F3800
000FF000
0007E000
0007C000
007FFC00
007FFC00
0043C000
007FFC00
007FFC00
0003FC00
0003C000
0007F000
003FFE00
01FFFFC0
ENDCHAR
STARTCHAR brokenbar
ENCODING 166
SWIDTH 304 0
DWIDTH 10 0
BBX 6 29 2 -2
BITMAP
FC
FC
FC
FC
F8
F8
F8
F8
F8
F8
F8
F0
00
00
00
00
00
F8
F8
F8
F8
F8
78
78
78
78
78
78
78
ENDCHAR
STARTCHAR section
ENCODING 167
SWIDTH 646 0
DWIDTH 21 0
BBX 18 38 1 -9
BITMAP
000040
07E080
1FF880
3FFC80
7C1E80
780780
F80380
F80180
FC0180
FE0080
7FC080
3FF000
3FFC00
1FFF00
3FFF80
7DFFC0
783FC0
F80FC0
F807C0
F803C0
FE03C0
7F87C0
7FFF80
3FFF00
1FFE00
07FF80
03FF80
407FC0
401FC0
6007C0
7003C0
7803C0
7E07C0
7FFF80
4FFF00
43FC00
800000
800000
ENDCHAR
STARTCHAR dieresis
ENCODING 168
SWIDTH 708 0
DWIDTH 23 0
BBX 9 4 7 26
BITMAP
E380
E780
E780
4300
ENDCHAR
STARTCHAR copyright
ENCODING 169
SWIDTH 700 0
DWIDTH 22 0
BBX 22 21 0 1
BITMAP
003800
03FF80
0FFFC0
1F81F0
3C00F8
787C78
71E63C
F1873C
E3871C
E3801C
E3801C
E3811C
F3811C
F1C33C
71FE3C
78FC78
3C00F0
1F03E0
0FFFC0
03FF00
003000
ENDCHAR
STARTCHAR ordfeminine
ENCODING 170
SWIDTH 399 0
DWIDTH 13 0
BBX 14 13 0 12
BITMAP
3F80
7FC0
F1E0
F1E0
71E0
3FE0
7FE0
F1E0
F1E0
FFE0
7FE0
1FF8
03C4
ENDCHAR
STARTCHAR guillemotleft
ENCODING 171
SWIDTH 424 0
DWIDTH 14 0
BBX 13 17 0 -1
BITMAP
0208
0618
0E38
0E38
1C70
3CF0
79E0
79E0
FBE0
79E0
79E0
3CF0
1C70
0E38
0E38
0618
0208
ENDCHAR
STARTCHAR logicalnot
ENCODING 172
SWIDTH 541 0
DWIDTH 17 0
BBX 18 17 1 2
BITMAP
800000
800100
800100
800100
800300
FF8300
FFFF00
FFFF00
FFFF00
FFFE00
800E00
800E00
800E00
800600
000600
001F00
003FC0
ENDCHAR
STARTCHAR sfthyphen
ENCODING 173
SWIDTH 530 0
DWIDTH 17 0
BBX 17 6 0 8
BITMAP
FF8000
FFFF80
FFFF80
FFFF80
FFFF80
FE0000
ENDCHAR
STARTCHAR registered
ENCODING 174
SWIDTH 700 0
DWIDTH 22 0
BBX 22 20 0 1
BITMAP
03FF00
0FFFC0
1FC3E0
3E00F0
7C0078
78F7BC
F7FFBC
F07F9C
E0711C
E0701C
E0701C
E0701C
F0701C
70783C
79FF38
3C0070
1E01F0
0FFFC0
07FF80
00FC00
ENDCHAR
STARTCHAR macron
ENCODING 175
SWIDTH 705 0
DWIDTH 23 0
BBX 9 4 8 23
BITMAP
FF80
FF80
FF80
FF80
ENDCHAR
STARTCHAR degree
ENCODING 176
SWIDTH 364 0
DWIDTH 12 0
BBX 8 9 2 14
BITMAP
3C
7E
FF
E7
C7
E7
FE
7E
10
ENDCHAR
STARTCHAR plusminus
ENCODING 177
SWIDTH 607 0
DWIDTH 19 0
BBX 18 20 1 0
BITMAP
03E000
03E000
03E000
03E000
FFFC00
FFFFC0
FFFFC0
FFFFC0
FFFFC0
03E000
03E000
03E000
01E000
01E000
C00000
FFFFC0
FFFF80
FFFF80
FFFF80
FFC000
ENDCHAR
STARTCHAR twosuperior
ENCODING 178
SWIDTH 440 0
DWIDTH 14 0
BBX 14 17 0 12
BITMAP
4000
67C0
7FF0
3FF8
3878
303C
303C
2078
20FC
23F4
2FCC
1F08
3E18
7838
FFF8
FFF8
FFF8
ENDCHAR
STARTCHAR threesuperior
ENCODING 179
SWIDTH 442 0
DWIDTH 14 0
BBX 14 19 0 10
BITMAP
8000
4000
67C0
7FF0
7FF8
3878
3038
2078
24F8
27F0
27F8
20FC
207C
307C
787C
7FF8
7FF0
47C0
8000
ENDCHAR
STARTCHAR acute
ENCODING 180
SWIDTH 694 0
DWIDTH 22 0
BBX 6 8 9 23
BITMAP
30
3C
3C
78
78
F0
70
10
ENDCHAR
STARTCHAR mu
ENCODING 181
SWIDTH 1000 0
DWIDTH 32 0
BBX 25 24 0 -8
BITMAP
FFD00000
3FCFFC00
0FC1FC00
07C07C00
07C07C00
07C07800
07807800
07807800
07807800
07807800
07807800
07C07000
07C0F000
07FFF000
07FFF800
07FF7F80
07807C00
07808000
07800000
07800000
07800000
07800000
07800000
07800000
ENDCHAR
STARTCHAR paragraph
ENCODING 182
SWIDTH 782 0
DWIDTH 25 0
BBX 28 22 -1 -1
BITMAP
007FFFF0
07FFFF00
3FFFFC00
7F1C7000
7C1C7000
F81C7000
F81C7000
7C1C7000
3F1C7000
0FFFF000
03FFF000
001FF000
001C7000
001CF000
001CF000
001CF000
001CF000
001CF000
001FF800
001FFE00
00FFFFC0
1FFFE000
ENDCHAR
STARTCHAR periodcentered
ENCODING 183
SWIDTH 226 0
DWIDTH 7 0
BBX 7 6 0 9
BITMAP
38
7C
FE
FE
7C
18
ENDCHAR
STARTCHAR cedilla
ENCODING 184
SWIDTH 780 0
DWIDTH 25 0
BBX 7 10 9 -6
BITMAP
30
30
78
FC
3E
0E
46
FE
FC
38
ENDCHAR
STARTCHAR onesuperior
ENCODING 185
SWIDTH 390 0
DWIDTH 13 0
BBX 12 17 0 11
BITMAP
00C0
0FC0
FF80
1F80
0780
0780
0780
0780
0780
0780
0780
0780
0780
0780
07C0
1FE0
7FF0
ENDCHAR
STARTCHAR ordmasculine
ENCODING 186
SWIDTH 449 0
DWIDTH 14 0
BBX 16 12 -1 13
BITMAP
0080
1FF8
3FFC
7C1E
781E
F00F
F00F
781E
781E
3FFC
1FF8
0100
ENDCHAR
STARTCHAR guillemotright
ENCODING 187
SWIDTH 415 0
DWIDTH 13 0
BBX 13 17 0 -1
BITMAP
4100
4180
E380
71C0
79E0
38F0
3CF0
1E78
1E78
1E78
3CF0
38F0
79E0
71C0
E380
4180
4100
ENDCHAR
STARTCHAR onequarter
ENCODING 188
SWIDTH 918 0
DWIDTH 29 0
BBX 29 32 0 -4
BITMAP
00C00100
0FC003C0
FF8007E0
1F8007C0
07800F80
07800F80
07801F00
07801E00
07803E00
07807C00
07807800
0780F800
0780F040
0781F0C0
07C3E0C0
1FE3C1C0
7FF7C3C0
000787C0
000F0FC0
000F1FC8
001E1FD0
003E3B90
003C7BB0
0078F3F0
0079FFF0
00F3FFF0
01E003B0
01E00390
03C00790
03C01FE0
0780FFF8
03000000
ENDCHAR
STARTCHAR onehalf
ENCODING 189
SWIDTH 1007 0
DWIDTH 32 0
BBX 32 32 0 -4
BITMAP
00C00100
0FC003C0
FF8007E0
1F8007C0
07800F80
07800F80
07801F00
07801E00
07803E00
07807C00
07807800
0780F800
0780F000
0781F000
07C3E000
1FE3D000
7FF7C8F0
00078FFC
000F0FFE
000F0F1F
001E0E0F
003E0C0F
003C0C1F
0078083E
0078087D
00F009F9
01E007E3
01E00F87
03C01F07
03C01FFE
07803FFE
03003FFE
ENDCHAR
STARTCHAR threequarters
ENCODING 190
SWIDTH 936 0
DWIDTH 30 0
BBX 30 33 0 -4
BITMAP
80000000
40000180
67C001C0
7FF003E0
7FF803C0
387807C0
30380F80
20780F00
24F81F00
27F01E00
27F83E00
20FC7C00
207C7800
307CF820
787CF040
7FF9E0C0
7FF3E1C0
47C3C3C0
8007C3C0
000787C0
000F0FC8
000F1FC8
001E3FD8
003E7BD8
003C73F8
0078FFF8
007BFFF8
00F003D8
01E003C8
01E003C8
03C01FF0
03C0FFFC
01800000
ENDCHAR
STARTCHAR questiondown
ENCODING 191
SWIDTH 568 0
DWIDTH 18 0
BBX 19 29 0 -11
BITMAP
001F80
001FC0
001FC0
001FC0
000700
000000
001800
003E00
003E00
003E00
007C00
0FFC00
3FFC00
7FFC00
FE0400
FC0000
F80000
F80000
F80020
F80040
F80040
7C00C0
7F01C0
3FFF80
0FFF80
00FF80
000180
000080
000080
ENDCHAR
STARTCHAR Agrave
ENCODING 192
SWIDTH 788 0
DWIDTH 25 0
BBX 37 39 -5 -7
BITMAP
0000400000
0001C00000
0007C00000
0003C00000
0003E00000
0001E00000
0001F00000
0000E00000
0000000000
0000000000
0180000000
007FE00000
001FF00000
0007F00000
0001F80000
0001F80000
0001FC0000
0003FC0000
0003FE0000
00077E0000
00073F0000
000E3F0000
000C1F8000
001C1F8000
003FFFC000
003FFFC000
007FFFE000
007007E000
00E003F000
00E003F000
01C003F800
0FF001F800
3FF801FC00
DFFE00FE00
000100FFE0
000001FFF8
000001FE00
000003E000
00000E0000
ENDCHAR
STARTCHAR Aacute
ENCODING 193
SWIDTH 788 0
DWIDTH 25 0
BBX 37 39 -5 -7
BITMAP
0000600000
0000780000
0000F80000
0000F00000
0000F00000
0001E00000
0000E00000
0000200000
0000000000
0000000000
0180000000
007FE00000
001FF00000
0007F00000
0001F80000
0001F80000
0001FC0000
0003FC0000
0003FE0000
00077E0000
00073F0000
000E3F0000
000C1F8000
001C1F8000
003FFFC000
003FFFC000
007FFFE000
007007E000
00E003F000
00E003F000
01C003F800
0FF001F800
3FF801FC00
DFFE00FE00
000100FFE0
000001FFF8
000001FE00
000003E000
00000E0000
ENDCHAR
STARTCHAR Acircumflex
ENCODING 194
SWIDTH 788 0
DWIDTH 25 0
BBX 37 38 -5 -7
BITMAP
0000400000
0000E00000
0000F00000
0001F80000
0003F80000
0007FC0000
000F1E0000
0006060000
0000000000
0180000000
007FE00000
001FF00000
0007F00000
0001F80000
0001F80000
0001FC0000
0003FC0000
0003FE0000
00077E0000
00073F0000
000E3F0000
000C1F8000
001C1F8000
003FFFC000
003FFFC000
007FFFE000
007007E000
00E003F000
00E003F000
01C003F800
0FF001F800
3FF801FC00
DFFE00FE00
000100FFE0
000001FFF8
000001FE00
000003E000
00000E0000
ENDCHAR
STARTCHAR Atilde
ENCODING 195
SWIDTH 788 0
DWIDTH 25 0
BBX 37 36 -5 -7
BITMAP
0003C20000
0007FE0000
0007FE0000
0007FE0000
00043C0000
0000000000
0000000000
0180000000
007FE00000
001FF00000
0007F00000
0001F80000
0001F80000
0001FC0000
0003FC0000
0003FE0000
00077E0000
00073F0000
000E3F0000
000C1F8000
001C1F8000
003FFFC000
003FFFC000
007FFFE000
007007E000
00E003F000
00E003F000
01C003F800
0FF001F800
3FF801FC00
DFFE00FE00
000100FFE0
000001FFF8
000001FE00
000003E000
00000E0000
ENDCHAR
STARTCHAR Adieresis
ENCODING 196
SWIDTH 788 0
DWIDTH 25 0
BBX 37 34 -5 -7
BITMAP
00071C0000
0007BC0000
00079C0000
0003080000
0000000000
0180000000
007FE00000
001FF00000
0007F00000
0001F80000
0001F80000
0001FC0000
0003FC0000
0003FE0000
00077E0000
00073F0000
000E3F0000
000C1F8000
001C1F8000
003FFFC000
003FFFC000
007FFFE000
007007E000
00E003F000
00E003F000
01C003F800
0FF001F800
3FF801FC00
DFFE00FE00
000100FFE0
000001FFF8
000001FE00
000003E000
00000E0000
ENDCHAR
STARTCHAR Aring
ENCODING 197
SWIDTH 788 0
DWIDTH 25 0
BBX 37 34 -5 -7
BITMAP
0000F00000
0001F80000
0001980000
0003980000
0001F80000
0181F00000
007FE00000
001FF00000
0007F00000
0001F80000
0001F80000
0001FC0000
0003FC0000
0003FE0000
00077E0000
00073F0000
000E3F0000
000C1F8000
001C1F8000
003FFFC000
003FFFC000
007FFFE000
007007E000
00E003F000
00E003F000
01C003F800
0FF001F800
3FF801FC00
DFFE00FE00
000100FFE0
000001FFF8
000001FE00
000003E000
00000E0000
ENDCHAR
STARTCHAR AE
ENCODING 198
SWIDTH 1019 0
DWIDTH 33 0
BBX 39 25 -8 -2
BITMAP
0000003FFE
003FFFFFFE
000FFFFFFE
0003FFF00E
0001FFE00E
00007FE086
000077E086
0000F7E086
0001E7E182
0001C3E182
0003C3E382
000383E380
000703FF82
000F03FF82
000E03FF82
001FFFE384
003FFFE386
003FFFE186
007003E08E
007003E08E
00E003E00E
03E00FFFFE
1FF07FFFFE
FFF9FFFFFE
01FF000000
ENDCHAR
STARTCHAR Ccedilla
ENCODING 199
SWIDTH 766 0
DWIDTH 25 0
BBX 23 35 1 -11
BITMAP
000002
000002
00FF06
03FFCE
0FFFEE
1FFBFC
3F807C
7F003C
7E001C
FE000C
FC000C
FC0008
FC0004
FC0000
FC0000
FC0000
FC0008
FC0008
7E0008
7E000C
3F001C
3F803C
1FFBFC
07FFF4
03FFC2
007E02
007002
007000
00FC00
01FE00
000E00
004E00
00FE00
01FC00
007800
ENDCHAR
STARTCHAR Egrave
ENCODING 200
SWIDTH 781 0
DWIDTH 25 0
BBX 27 34 -3 -1
BITMAP
00010000
00070000
000F8000
000F8000
00078000
0007C000
0003C000
00018000
00000000
00000000
00003FE0
87FFFFE0
7FFFFFE0
07FC01E0
00FC01E0
00FC10C0
00FC10C0
00FC1040
00FC3040
00FC3040
00FC7020
00FC7000
00FFF040
00FFF040
00FFF040
00F8F0C0
00F870C0
00F830C0
00F831C0
00F811C0
00F801C0
03FFFFC0
0FFFFFC0
7FFFFFC0
ENDCHAR
STARTCHAR Eacute
ENCODING 201
SWIDTH 781 0
DWIDTH 25 0
BBX 27 33 -3 -1
BITMAP
0000C000
0001F000
0001F000
0001E000
0003C000
0003C000
00038000
00008000
00000000
00003FE0
87FFFFE0
7FFFFFE0
07FC01E0
00FC01E0
00FC10C0
00FC10C0
00FC1040
00FC3040
00FC3040
00FC7020
00FC7000
00FFF040
00FFF040
00FFF040
00F8F0C0
00F870C0
00F830C0
00F831C0
00F811C0
00F801C0
03FFFFC0
0FFFFFC0
7FFFFFC0
ENDCHAR
STARTCHAR Ecircumflex
ENCODING 202
SWIDTH 781 0
DWIDTH 25 0
BBX 27 34 -3 -1
BITMAP
00010000
00030000
00078000
000FC000
001FE000
001FF000
007C7800
00303000
00000000
00000000
00003FE0
87FFFFE0
7FFFFFE0
07FC01E0
00FC01E0
00FC10C0
00FC10C0
00FC1040
00FC3040
00FC3040
00FC7020
00FC7000
00FFF040
00FFF040
00FFF040
00F8F0C0
00F870C0
00F830C0
00F831C0
00F811C0
00F801C0
03FFFFC0
0FFFFFC0
7FFFFFC0
ENDCHAR
STARTCHAR Edieresis
ENCODING 203
SWIDTH 781 0
DWIDTH 25 0
BBX 27 29 -3 -1
BITMAP
001C7000
001EF000
001E7000
000C2000
00000000
00003FE0
87FFFFE0
7FFFFFE0
07FC01E0
00FC01E0
00FC10C0
00FC10C0
00FC1040
00FC3040
00FC3040
00FC7020
00FC7000
00FFF040
00FFF040
00FFF040
00F8F0C0
00F870C0
00F830C0
00F831C0
00F811C0
00F801C0
03FFFFC0
0FFFFFC0
7FFFFFC0
ENDCHAR
STARTCHAR Igrave
ENCODING 204
SWIDTH 445 0
DWIDTH 14 0
BBX 20 36 -3 -3
BITMAP
002000
00E000
03E000
01F000
01F000
00F000
007800
007000
000000
000000
000000
FFFFF0
0FFF80
03FC00
00F800
00F800
00F800
00F800
00F800
00F800
00F800
00F800
00F800
00F800
00F800
00F800
00F800
00F800
00F800
00F800
00F800
00F800
00F800
01FC00
07FF80
7FFFF0
ENDCHAR
STARTCHAR Iacute
ENCODING 205
SWIDTH 445 0
DWIDTH 14 0
BBX 20 35 -3 -3
BITMAP
001800
003E00
003C00
003C00
007800
007800
007000
001000
000000
000000
FFFFF0
0FFF80
03FC00
00F800
00F800
00F800
00F800
00F800
00F800
00F800
00F800
00F800
00F800
00F800
00F800
00F800
00F800
00F800
00F800
00F800
00F800
00F800
01FC00
07FF80
7FFFF0
ENDCHAR
STARTCHAR Icircumflex
ENCODING 206
SWIDTH 445 0
DWIDTH 14 0
BBX 20 36 -3 -3
BITMAP
002000
007000
007800
00FC00
01FC00
03FE00
078F00
020300
000000
000000
000000
FFFFF0
0FFF80
03FC00
00F800
00F800
00F800
00F800
00F800
00F800
00F800
00F800
00F800
00F800
00F800
00F800
00F800
00F800
00F800
00F800
00F800
00F800
00F800
01FC00
07FF80
7FFFF0
ENDCHAR
STARTCHAR Idieresis
ENCODING 207
SWIDTH 445 0
DWIDTH 14 0
BBX 20 31 -3 -3
BITMAP
038E00
03DE00
038E00
010400
000000
000000
FFFFF0
0FFF80
03FC00
00F800
00F800
00F800
00F800
00F800
00F800
00F800
00F800
00F800
00F800
00F800
00F800
00F800
00F800
00F800
00F800
00F800
00F800
00F800
01FC00
07FF80
7FFFF0
ENDCHAR
STARTCHAR Eth
ENCODING 208
SWIDTH 1000 0
DWIDTH 32 0
BBX 31 23 0 -1
BITMAP
C0000000
3FFFFE00
07FFFFC0
01FFFFE0
007E03F0
007E01F8
007E00FC
007E00FC
007E007C
007E007E
1FFFF07E
1FFFF07E
1FFFF07E
1FFFF07E
003E007C
003E007C
003E00FC
003E00F8
003E01F0
003FFFF0
00FFFFC0
03FFFF00
1FF80000
ENDCHAR
STARTCHAR Ntilde
ENCODING 209
SWIDTH 840 0
DWIDTH 27 0
BBX 33 33 -3 -2
BITMAP
000F880000
000FF80000
000FF80000
000FF80000
0008F80000
0000000000
0000000000
0000000080
FFF9FFFF00
1FFC1FFC00
07FE07F000
01FF01E000
00FF81E000
00FF81C000
00FFC1C000
00FFE1C000
00EFF1C000
00E7F9C000
00E3F9C000
00E1FDC000
00E0FFC000
00E0FFC000
00E07FC000
00E03FC000
00E01FC000
00E00FC000
00E007C000
01F003C000
07FE01C000
1FFFC1C000
FFFFF8C000
0000004000
0000002000
ENDCHAR
STARTCHAR Ograve
ENCODING 210
SWIDTH 808 0
DWIDTH 26 0
BBX 24 31 1 0
BITMAP
000400
001C00
007C00
003C00
003E00
001E00
001E00
000C00
000000
000000
000000
007E00
03FFC0
0FFFF0
3FE3F8
7F80FC
7E007E
FE007F
FC003F
FC003F
FC003F
FC003F
FC003F
FC003F
FC003F
7E007E
7E00FE
3F81FC
1FFFF8
0FFFE0
01FF80
ENDCHAR
STARTCHAR Oacute
ENCODING 211
SWIDTH 808 0
DWIDTH 26 0
BBX 24 29 1 0
BITMAP
000C00
000F00
001F00
001E00
001E00
003C00
001C00
000400
000000
007E00
03FFC0
0FFFF0
3FE3F8
7F80FC
7E007E
FE007F
FC003F
FC003F
FC003F
FC003F
FC003F
FC003F
FC003F
7E007E
7E00FE
3F81FC
1FFFF8
0FFFE0
01FF80
ENDCHAR
STARTCHAR Ocircumflex
ENCODING 212
SWIDTH 808 0
DWIDTH 26 0
BBX 24 30 1 0
BITMAP
000800
001800
003C00
007E00
00FF00
00FF00
03C3C0
018180
000000
000000
007E00
03FFC0
0FFFF0
3FE3F8
7F80FC
7E007E
FE007F
FC003F
FC003F
FC003F
FC003F
FC003F
FC003F
FC003F
7E007E
7E00FE
3F81FC
1FFFF8
0FFFE0
01FF80
ENDCHAR
STARTCHAR Otilde
ENCODING 213
SWIDTH 808 0
DWIDTH 26 0
BBX 24 28 1 0
BITMAP
00F880
00FF80
00FF80
00FF80
008F80
000000
000000
000000
007E00
03FFC0
0FFFF0
3FE3F8
7F80FC
7E007E
FE007F
FC003F
FC003F
FC003F
FC003F
FC003F
FC003F
FC003F
7E007E
7E00FE
3F81FC
1FFFF8
0FFFE0
01FF80
ENDCHAR
STARTCHAR Odieresis
ENCODING 214
SWIDTH 808 0
DWIDTH 26 0
BBX 24 26 1 0
BITMAP
00E700
01E780
01E780
00C300
000000
000000
007E00
03FFC0
0FFFF0
3FE3F8
7F80FC
7E007E
FE007F
FC003F
FC003F
FC003F
FC003F
FC003F
FC003F
FC003F
7E007E
7E00FE
3F81FC
1FFFF8
0FFFE0
01FF80
ENDCHAR
STARTCHAR multiply
ENCODING 215
SWIDTH 556 0
DWIDTH 18 0
BBX 18 18 0 2
BITMAP
080000
180600
3C0F00
7E1F00
FF3FC0
3FFF80
1FFE00
0FFC00
07F800
07F800
0FFC00
1FFC00
3FFE00
3F3F00
FE1F80
7C0F00
380600
100000
ENDCHAR
STARTCHAR Oslash
ENCODING 216
SWIDTH 808 0
DWIDTH 26 0
BBX 24 27 1 -4
BITMAP
000040
0000F0
0000FC
007FF8
03FFF0
0FFFF0
3FE7F8
7F87FC
7E0FFE
FE0FFF
FC1F3F
FC1F3F
FC3E3F
FC3E3F
FC7C3F
FC783F
FCF83F
7FF07E
7FE0FE
3FE1FC
1FFFF8
0FFFE0
07FF80
0F0000
1F0000
0E0000
040000
ENDCHAR
STARTCHAR Ugrave
ENCODING 217
SWIDTH 725 0
DWIDTH 23 0
BBX 29 32 -3 -1
BITMAP
00010000
00070000
001F0000
000F8000
00078000
00078000
0003C000
00038000
00000000
00000000
C000FFF8
1FFF1FC0
07F80780
03F00700
03E00700
03E00700
03E00700
03E00700
07E00700
07E00700
07E00700
07E00700
07E00700
07E00700
07E00700
03F00700
03F00F00
03F80E00
01FE7E00
00FFFC00
007FF000
000F8000
ENDCHAR
STARTCHAR Uacute
ENCODING 218
SWIDTH 725 0
DWIDTH 23 0
BBX 29 32 -3 -1
BITMAP
00030000
0003E000
0003C000
0007C000
00078000
00078000
00070000
00010000
00000000
00000000
C000FFF8
1FFF1FC0
07F80780
03F00700
03E00700
03E00700
03E00700
03E00700
07E00700
07E00700
07E00700
07E00700
07E00700
07E00700
07E00700
03F00700
03F00F00
03F80E00
01FE7E00
00FFFC00
007FF000
000F8000
ENDCHAR
STARTCHAR Ucircumflex
ENCODING 219
SWIDTH 725 0
DWIDTH 23 0
BBX 29 32 -3 -1
BITMAP
00010000
00030000
00078000
000FC000
001FE000
001FF000
007C7800
00303000
00000000
00000000
C000FFF8
1FFF1FC0
07F80780
03F00700
03E00700
03E00700
03E00700
03E00700
07E00700
07E00700
07E00700
07E00700
07E00700
07E00700
07E00700
03F00700
03F00F00
03F80E00
01FE7E00
00FFFC00
007FF000
000F8000
ENDCHAR
STARTCHAR Udieresis
ENCODING 220
SWIDTH 725 0
DWIDTH 23 0
BBX 29 28 -3 -1
BITMAP
001C7000
001EF000
001E7000
000C2000
00000000
00000000
C000FFF8
1FFF1FC0
07F80780
03F00700
03E00700
03E00700
03E00700
03E00700
07E00700
07E00700
07E00700
07E00700
07E00700
07E00700
07E00700
03F00700
03F00F00
03F80E00
01FE7E00
00FFFC00
007FF000
000F8000
ENDCHAR
STARTCHAR Yacute
ENCODING 221
SWIDTH 848 0
DWIDTH 27 0
BBX 33 32 -4 -2
BITMAP
0000180000
00001F0000
00001E0000
00003E0000
00003C0000
0000380000
0000780000
0000080000
0000000000
007F800000
FFFE000000
0FF81FF080
01FC03FF00
00FE01F800
007F00E000
003F01C000
001F838000
000FC70000
0007EE0000
0003FC0000
0001F80000
0000F00000
0000F00000
0000F00000
0000F80000
0000F80000
0000F80000
0000F80000
0000F80000
0000FC0000
0007FF0000
007FFFF800
ENDCHAR
STARTCHAR Thorn
ENCODING 222
SWIDTH 745 0
DWIDTH 24 0
BBX 27 22 -3 -1
BITMAP
C0001000
3FFFE000
07FF0000
01F80000
00F80000
00FFF800
00FFFF00
00FFFFC0
00F807E0
00F803E0
00F801E0
00F803E0
00F807C0
00F87F80
00FFFE00
00FFE000
00F80000
00F80000
00F80000
03FE0000
0FFFC000
7FFFF800
ENDCHAR
STARTCHAR germandbls
ENCODING 223
SWIDTH 986 0
DWIDTH 32 0
BBX 34 43 -2 -13
BITMAP
0003C00000
001FF80000
003FFC0000
007E3E0000
00781F0000
00F00F0000
00F0078000
01F0078000
01E0078000
01E0078000
01E0078000
01E0078000
01F00F8000
01F00F0000
3FF01F0000
3FF03E0000
3FF03E0000
01F07C0000
01F07C0000
00F07C0000
00F87C0000
00F87C0000
00F87F0000
00F83FC000
00F83FF800
00F80FFE00
00F847FF00
007821FF80
0078207FC0
007C301FC0
007C3807C0
007C7E07C0
007C7FFF80
007C6FFF00
307C63F800
787C400000
F87C400000
F878000000
7878000000
78F0000000
3FF0000000
1FE0000000
0380000000
ENDCHAR
STARTCHAR agrave
ENCODING 224
SWIDTH 572 0
DWIDTH 18 0
BBX 20 29 1 -1
BITMAP
001000
007000
01F000
00F800
007800
007800
003C00
003800
000000
000000
03C000
1FF800
3FFC00
783E00
781E00
FC1F00
781F00
781F00
021F00
3FFF00
7FFF00
F81E00
F83E00
F83E00
FC3E00
7FFE00
3FFF00
003FC0
003E30
ENDCHAR
STARTCHAR aacute
ENCODING 225
SWIDTH 572 0
DWIDTH 18 0
BBX 20 28 1 -1
BITMAP
002000
007C00
007800
007800
00F000
00F000
00E000
002000
000000
03C000
1FF800
3FFC00
783E00
781E00
FC1F00
781F00
781F00
021F00
3FFF00
7FFF00
F81E00
F83E00
F83E00
FC3E00
7FFE00
3FFF00
003FC0
003E30
ENDCHAR
STARTCHAR acircumflex
ENCODING 226
SWIDTH 572 0
DWIDTH 18 0
BBX 20 29 1 -1
BITMAP
004000
00E000
01F000
01F000
03F800
07BC00
0F1E00
0C0400
000000
000000
03C000
1FF800
3FFC00
783E00
781E00
FC1F00
781F00
781F00
021F00
3FFF00
7FFF00
F81E00
F83E00
F83E00
FC3E00
7FFE00
3FFF00
003FC0
003E30
ENDCHAR
STARTCHAR atilde
ENCODING 227
SWIDTH 572 0
DWIDTH 18 0
BBX 20 26 1 -1
BITMAP
03C600
07FE00
07FE00
07FE00
043C00
000000
000000
03C000
1FF800
3FFC00
783E00
781E00
FC1F00
781F00
781F00
021F00
3FFF00
7FFF00
F81E00
F83E00
F83E00
FC3E00
7FFE00
3FFF00
003FC0
003E30
ENDCHAR
STARTCHAR adieresis
ENCODING 228
SWIDTH 572 0
DWIDTH 18 0
BBX 20 25 1 -1
BITMAP
0E3800
0F3C00
0F3800
061000
000000
000000
03C000
1FF800
3FFC00
783E00
781E00
FC1F00
781F00
781F00
021F00
3FFF00
7FFF00
F81E00
F83E00
F83E00
FC3E00
7FFE00
3FFF00
003FC0
003E30
ENDCHAR
STARTCHAR aring
ENCODING 229
SWIDTH 572 0
DWIDTH 18 0
BBX 20 25 1 -1
BITMAP
00E000
01F000
03B800
031800
03B800
01F000
03E000
1FF800
3FFC00
783E00
781E00
FC1F00
781F00
781F00
021F00
3FFF00
7FFF00
F81E00
F83E00
F83E00
FC3E00
7FFE00
3FFF00
003FC0
003E30
ENDCHAR
STARTCHAR ae
ENCODING 230
SWIDTH 1022 0
DWIDTH 33 0
BBX 32 19 0 -1
BITMAP
03E00000
0FFC03C0
3FFE1FF0
7C3E7FFC
7C1FFC7E
7C1FF81E
7C0FF01F
380FF00F
031FFFFF
3FFFFFFF
7FFFFFC0
F81FF000
F81FF802
F81FFC0E
FC3E7FFC
7FFE1FF0
1FFF0180
003FC000
003E3000
ENDCHAR
STARTCHAR ccedilla
ENCODING 231
SWIDTH 589 0
DWIDTH 19 0
BBX 18 27 1 -11
BITMAP
01F000
07FE00
1FFF00
3F0F80
7E0F80
7C0F80
FC0F80
F80700
F80000
F80000
F80040
FC0080
7C0180
7E0380
3FDF00
1FFF00
0FFC00
03F000
01C000
038000
03F000
07F000
003800
023800
03F000
07F000
01E000
ENDCHAR
STARTCHAR egrave
ENCODING 232
SWIDTH 593 0
DWIDTH 19 0
BBX 18 27 1 -2
BITMAP
001000
007000
01F000
00F000
00F800
007800
007C00
003800
000000
000000
01F000
0FFC00
1FFE00
3FFF00
7C0F80
7C0F80
F80780
F807C0
FFFFC0
FFFFC0
F80000
F80000
7C0080
3E0300
3FFE00
0FFC00
03F000
ENDCHAR
STARTCHAR eacute
ENCODING 233
SWIDTH 593 0
DWIDTH 19 0
BBX 18 27 1 -2
BITMAP
006000
007C00
007800
00F000
00F000
01E000
00E000
002000
000000
000000
01F000
0FFC00
1FFE00
3FFF00
7C0F80
7C0F80
F80780
F807C0
FFFFC0
FFFFC0
F80000
F80000
7C0080
3E0300
3FFE00
0FFC00
03F000
ENDCHAR
STARTCHAR ecircumflex
ENCODING 234
SWIDTH 593 0
DWIDTH 19 0
BBX 18 27 1 -2
BITMAP
004000
00E000
01F000
01F000
03F800
07BC00
0F1E00
0C0400
000000
000000
01F000
0FFC00
1FFE00
3FFF00
7C0F80
7C0F80
F80780
F807C0
FFFFC0
FFFFC0
F80000
F80000
7C0080
3E0300
3FFE00
0FFC00
03F000
ENDCHAR
STARTCHAR edieresis
ENCODING 235
SWIDTH 593 0
DWIDTH 19 0
BBX 18 23 1 -2
BITMAP
071C00
079E00
079C00
030800
000000
000000
01F000
0FFC00
1FFE00
3FFF00
7C0F80
7C0F80
F80780
F807C0
FFFFC0
FFFFC0
F80000
F80000
7C0080
3E0300
3FFE00
0FFC00
03F000
ENDCHAR
STARTCHAR igrave
ENCODING 236
SWIDTH 393 0
DWIDTH 13 0
BBX 15 28 -1 0
BITMAP
0080
0380
0F80
07C0
07C0
03C0
01E0
01C0
0000
0000
0000
FFF0
3FE0
0FE0
03E0
03E0
03E0
03E0
03E0
03E0
03E0
03E0
03E0
03E0
03E0
07F0
1FF8
7FFE
ENDCHAR
STARTCHAR iacute
ENCODING 237
SWIDTH 393 0
DWIDTH 13 0
BBX 15 27 -1 0
BITMAP
00C0
00F8
00F0
01F0
01E0
01E0
03C0
0040
0000
0000
FFF0
3FE0
0FE0
03E0
03E0
03E0
03E0
03E0
03E0
03E0
03E0
03E0
03E0
03E0
07F0
1FF8
7FFE
ENDCHAR
STARTCHAR icircumflex
ENCODING 238
SWIDTH 393 0
DWIDTH 13 0
BBX 15 28 -1 0
BITMAP
0080
01C0
03C0
07E0
07F0
0FF8
1E3C
1818
0000
0000
0000
FFF0
3FE0
0FE0
03E0
03E0
03E0
03E0
03E0
03E0
03E0
03E0
03E0
03E0
03E0
07F0
1FF8
7FFE
ENDCHAR
STARTCHAR idieresis
ENCODING 239
SWIDTH 393 0
DWIDTH 13 0
BBX 15 24 -1 0
BITMAP
0F38
0F3C
0F38
0610
0000
0000
0000
FFF0
3FE0
0FE0
03E0
03E0
03E0
03E0
03E0
03E0
03E0
03E0
03E0
03E0
03E0
07F0
1FF8
7FFE
ENDCHAR
STARTCHAR eth
ENCODING 240
SWIDTH 672 0
DWIDTH 22 0
BBX 22 29 0 -3
BITMAP
180020
070060
01C1F0
00E7E0
007FC0
003F00
007E00
01FF00
07F780
03E7C0
0383E0
0103E0
0001F0
0001F0
07FFF8
1FFFF8
3F87F8
7E01F8
FC00F8
F800FC
F800FC
F800F8
F800F8
F800F8
FC01F0
7E03F0
3FDFE0
0FFF80
03FE00
ENDCHAR
STARTCHAR ntilde
ENCODING 241
SWIDTH 643 0
DWIDTH 21 0
BBX 26 23 -3 2
BITMAP
001E3000
003FF000
003FF000
003FF000
0021E000
00000000
00000000
00080000
03F1E000
FFFFF800
1FFFFC00
03FFFC00
01F03E00
01F03E00
01F03E00
01F03E00
01E03E00
00E03E00
00E03C00
01F03C00
0FFC3C00
30027E00
0007FFC0
ENDCHAR
STARTCHAR ograve
ENCODING 242
SWIDTH 705 0
DWIDTH 23 0
BBX 22 26 0 0
BITMAP
000800
003800
007C00
007C00
003C00
003E00
001E00
000C00
000000
000000
000000
03FF80
0FFFE0
3FC7F0
3F01F8
7C00FC
7C007C
FC007C
F8007C
FC007C
7C007C
7C00FC
3E01F8
1FC7F0
0FFFC0
03FF00
ENDCHAR
STARTCHAR oacute
ENCODING 243
SWIDTH 705 0
DWIDTH 23 0
BBX 22 25 0 0
BITMAP
001800
001E00
001E00
003C00
003C00
007800
003800
000800
000000
000000
03FF80
0FFFE0
3FC7F0
3F01F8
7C00FC
7C007C
FC007C
F8007C
FC007C
7C007C
7C00FC
3E01F8
1FC7F0
0FFFC0
03FF00
ENDCHAR
STARTCHAR ocircumflex
ENCODING 244
SWIDTH 705 0
DWIDTH 23 0
BBX 22 26 0 0
BITMAP
001000
003800
003C00
007E00
00FE00
01FF00
03C780
018180
000000
000000
000000
03FF80
0FFFE0
3FC7F0
3F01F8
7C00FC
7C007C
FC007C
F8007C
FC007C
7C007C
7C00FC
3E01F8
1FC7F0
0FFFC0
03FF00
ENDCHAR
STARTCHAR otilde
ENCODING 245
SWIDTH 705 0
DWIDTH 23 0
BBX 22 23 0 0
BITMAP
00F080
01FF80
01FF80
01FF80
010F00
000000
000000
000000
03FF80
0FFFE0
3FC7F0
3F01F8
7C00FC
7C007C
FC007C
F8007C
FC007C
7C007C
7C00FC
3E01F8
1FC7F0
0FFFC0
03FF00
ENDCHAR
STARTCHAR odieresis
ENCODING 246
SWIDTH 705 0
DWIDTH 23 0
BBX 22 22 0 0
BITMAP
00E700
01E780
01E780
00C300
000000
000000
000000
03FF80
0FFFE0
3FC7F0
3F01F8
7C00FC
7C007C
FC007C
F8007C
FC007C
7C007C
7C00FC
3E01F8
1FC7F0
0FFFC0
03FF00
ENDCHAR
STARTCHAR divide
ENCODING 247
SWIDTH 504 0
DWIDTH 16 0
BBX 16 18 0 0
BITMAP
03E0
07F0
07F0
07F0
03E0
0000
C000
FFFF
FFFF
FFFF
FFFF
0000
0000
03C0
07E0
07F0
07E0
03E0
ENDCHAR
STARTCHAR oslash
ENCODING 248
SWIDTH 705 0
DWIDTH 23 0
BBX 22 23 0 -4
BITMAP
0000C0
0001E0
0003F0
0003E0
03FFC0
0FFFE0
3FCFF0
3F0FF8
7C1FFC
7C3E7C
FC3E7C
F87C7C
FC787C
7CF87C
7CF0FC
3FE1F8
1FE7F0
0FFFC0
07FF00
078000
0F0000
0F0000
020000
ENDCHAR
STARTCHAR ugrave
ENCODING 249
SWIDTH 614 0
DWIDTH 20 0
BBX 25 28 -3 -2
BITMAP
00040000
001C0000
007C0000
003C0000
003E0000
001E0000
001F0000
000E0000
00000000
00000000
FFC00000
3FCFFC00
0FC1FC00
07C07C00
07C07C00
07C07C00
07C07800
07C07800
07807800
07807800
07807800
07C07800
07C0F000
03FFF000
01FFF800
00FF7F80
00007C00
00008000
ENDCHAR
STARTCHAR uacute
ENCODING 250
SWIDTH 614 0
DWIDTH 20 0
BBX 25 27 -3 -2
BITMAP
00060000
00078000
000F8000
000F0000
000F0000
001E0000
000E0000
00040000
00000000
FFC00000
3FCFFC00
0FC1FC00
07C07C00
07C07C00
07C07C00
07C07800
07C07800
07807800
07807800
07807800
07C07800
07C0F000
03FFF000
01FFF800
00FF7F80
00007C00
00008000
ENDCHAR
STARTCHAR ucircumflex
ENCODING 251
SWIDTH 614 0
DWIDTH 20 0
BBX 25 28 -3 -2
BITMAP
00040000
000C0000
001E0000
003F0000
007F8000
007FC000
00F1E000
00C0C000
00000000
00000000
FFC00000
3FCFFC00
0FC1FC00
07C07C00
07C07C00
07C07C00
07C07800
07C07800
07807800
07807800
07807800
07C07800
07C0F000
03FFF000
01FFF800
00FF7F80
00007C00
00008000
ENDCHAR
STARTCHAR udieresis
ENCODING 252
SWIDTH 614 0
DWIDTH 20 0
BBX 25 24 -3 -2
BITMAP
00E38000
00F3C000
00F38000
00610000
00000000
00000000
FFC00000
3FCFFC00
0FC1FC00
07C07C00
07C07C00
07C07C00
07C07800
07C07800
07807800
07807800
07807800
07C07800
07C0F000
03FFF000
01FFF800
00FF7F80
00007C00
00008000
ENDCHAR
STARTCHAR yacute
ENCODING 253
SWIDTH 655 0
DWIDTH 21 0
BBX 22 40 -2 -14
BITMAP
000C00
000F00
001F00
001E00
001E00
003C00
001C00
000800
800000
600000
3C1E00
1F87FC
0FE3FC
07C0FC
0FC0FC
0FC0FC
0F80FC
1F80FC
1F80FC
1F80FC
1F80FC
0FC0FC
0FFFFC
07FFF8
03FFF8
0000F8
0000F8
0000F8
0000F8
0000F8
0000F8
0400F8
0F00F8
1F00F8
1F01F0
1F01F0
0F03E0
0FCFE0
07FFC0
01FF00
ENDCHAR
STARTCHAR thorn
ENCODING 254
SWIDTH 734 0
DWIDTH 24 0
BBX 27 35 -3 -13
BITMAP
FFF80000
1FF80000
07F80000
01F80000
00F80000
00F80000
00F80000
00F80000
00F80000
00F80000
00F80000
00F80000
00FFFC00
00FFFF00
00FC1F80
00F807C0
00F807C0
00F803E0
00F803E0
00F803E0
00F803E0
00F807C0
00F80FC0
00FFFF80
00FFFF00
00FFFC00
00F80000
00F80000
00F80000
00F80000
00F80000
00F80000
00FC0000
07FF8000
7FFFF000
ENDCHAR
STARTCHAR ydieresis
ENCODING 255
SWIDTH 655 0
DWIDTH 21 0
BBX 22 37 -2 -14
BITMAP
01C700
01E780
01E700
00C200
000000
800000
600000
3C1E00
1F87FC
0FE3FC
07C0FC
0FC0FC
0FC0FC
0F80FC
1F80FC
1F80FC
1F80FC
1F80FC
0FC0FC
0FFFFC
07FFF8
03FFF8
0000F8
0000F8
0000F8
0000F8
0000F8
0000F8
0400F8
0F00F8
1F00F8
1F01F0
1F01F0
0F03E0
0FCFE0
07FFC0
01FF00
ENDCHAR
STARTCHAR dotlessi
ENCODING 305
SWIDTH 393 0
DWIDTH 13 0
BBX 15 17 -1 0
BITMAP
FFF0
3FE0
0FE0
03E0
03E0
03E0
03E0
03E0
03E0
03E0
03E0
03E0
03E0
03E0
07F0
1FF8
7FFE
ENDCHAR
STARTCHAR Lslash
ENCODING 321
SWIDTH 713 0
DWIDTH 23 0
BBX 26 25 -3 0
BITMAP
FFFFF800
0FFF8000
01FE0000
00FC0000
00FC0000
00FC0000
00FC0000
00FDC000
00FFC000
00FFE000
00FFE000
01FF8040
07FE0040
1FFC00C0
0FFC00C0
0F7C00C0
087C01C0
007C01C0
007C03C0
007C03C0
007C03C0
00FFFFC0
03FFFFC0
0FFFFFC0
7F000000
ENDCHAR
STARTCHAR lslash
ENCODING 322
SWIDTH 365 0
DWIDTH 12 0
BBX 18 29 -4 -2
BITMAP
FFF800
07F800
01F800
01F800
01F800
01F800
00F800
00F800
00F880
00FF80
00FF80
00FFC0
03FE00
0FF800
3FF800
1FF800
1FF800
0CF000
00F000
00F000
00F000
00F000
00F000
00F000
00F000
00F000
00F800
03FE00
1FFF80
ENDCHAR
STARTCHAR OE
ENCODING 338
SWIDTH 1195 0
DWIDTH 38 0
BBX 37 24 0 -1
BITMAP
00000007F8
0011FFFFF8
000FFFFFF8
0000FFC078
00001F8038
01FE1F8238
0FFF9F8218
1FFFDF8618
3F03FF8618
7E01FF8608
7C01FF8E08
F800FF8C00
F800FFFC10
F800FFFC10
F800FFFC10
7C00FF9C10
7C01FF8C10
7E03FF8430
3F07FF8430
1FFFDF8230
07FF1F8070
00F07FFFF0
0001FFFFF0
001FFFFFF0
ENDCHAR
STARTCHAR oe
ENCODING 339
SWIDTH 1087 0
DWIDTH 35 0
BBX 35 17 0 -2
BITMAP
0030000000
07FF03F800
1FFF8FFE00
3F07FFFF00
7C03FE1F80
7801FC0FC0
F801F807C0
F801F807C0
F801FFFFC0
F801FFFFE0
7C01FFFFC0
7C03F80000
3F0FFC0080
1FFFFE0180
07FE3FFF00
00001FFE00
000003F000
ENDCHAR
STARTCHAR Scaron
ENCODING 352
SWIDTH 661 0
DWIDTH 21 0
BBX 21 36 0 -4
BITMAP
020200
078700
03CF00
01FE00
00FC00
00F800
007800
003000
000000
000008
000008
03F810
1FFF30
3FFFF0
7E07F0
7C01F0
FC0070
FC0030
FF8010
7FF810
7FFF00
3FFFC0
0FFFE0
01FFF0
201FF8
2007F8
3003F8
3001F8
3C01F0
3E03F0
3FFFE0
27FF80
20FE00
200000
400000
400000
ENDCHAR
STARTCHAR scaron
ENCODING 353
SWIDTH 533 0
DWIDTH 17 0
BBX 16 30 1 -1
BITMAP
0808
1C1C
1E78
0FF0
07E0
03E0
01C0
0180
0000
0002
0782
3FE2
7FFE
F87E
F01E
F00E
FC06
FF02
7FE2
3FF8
1FFE
87FE
C0FF
E03F
F01F
F81F
FFFE
DFFC
87F0
8000
ENDCHAR
STARTCHAR Ydieresis
ENCODING 376
SWIDTH 848 0
DWIDTH 27 0
BBX 33 29 -4 -2
BITMAP
00038E0000
0003DE0000
00038E0000
0001040000
0000000000
0000000000
007F800000
FFFE000000
0FF81FF080
01FC03FF00
00FE01F800
007F00E000
003F01C000
001F838000
000FC70000
0007EE0000
0003FC0000
0001F80000
0000F00000
0000F00000
0000F00000
0000F80000
0000F80000
0000F80000
0000F80000
0000F80000
0000FC0000
0007FF0000
007FFFF800
ENDCHAR
STARTCHAR Zcaron
ENCODING 381
SWIDTH 685 0
DWIDTH 22 0
BBX 23 30 0 0
BITMAP
010100
038380
01E780
00FF00
007E00
007C00
003800
001800
000000
000000
00001E
FFFFFC
7FFFF8
7FFFF8
7807F0
300FE0
301FC0
303F80
307F80
107F04
10FE04
01FC08
03FC08
07F818
0FF038
0FE038
1FF078
3FFFF8
7FFFF8
800018
ENDCHAR
STARTCHAR zcaron
ENCODING 382
SWIDTH 549 0
DWIDTH 18 0
BBX 19 29 0 -1
BITMAP
040400
0E0E00
07BC00
03FC00
03F800
01F000
00E000
004000
000000
000000
000000
807FE0
7FFFC0
7FFF80
701F00
703F00
707E00
30FC00
21FC00
21F880
23F080
07E180
0FE180
1FC380
1F8380
3FFB80
7FFF80
FFFF80
000080
ENDCHAR
STARTCHAR circumflex
ENCODING 710
SWIDTH 714 0
DWIDTH 23 0
BBX 11 8 7 22
BITMAP
0400
0E00
0F00
1F80
3F80
7FC0
F1E0
6060
ENDCHAR
STARTCHAR caron
ENCODING 711
SWIDTH 714 0
DWIDTH 23 0
BBX 11 8 7 22
BITMAP
4040
E0E0
7BE0
3FC0
3F80
1F00
0E00
0600
ENDCHAR
STARTCHAR breve
ENCODING 728
SWIDTH 715 0
DWIDTH 23 0
BBX 11 6 7 24
BITMAP
4040
E0E0
7FC0
3FC0
3F80
1F00
ENDCHAR
STARTCHAR dotaccent
ENCODING 729
SWIDTH 708 0
DWIDTH 23 0
BBX 4 4 9 26
BITMAP
70
F0
70
60
ENDCHAR
STARTCHAR ring
ENCODING 730
SWIDTH 704 0
DWIDTH 23 0
BBX 7 7 9 23
BITMAP
18
7C
FE
C6
EE
7C
38
ENDCHAR
STARTCHAR ogonek
ENCODING 731
SWIDTH 988 0
DWIDTH 32 0
BBX 12 8 10 -4
BITMAP
7000
7000
F000
F000
F870
FFE0
7FC0
1F00
ENDCHAR
STARTCHAR tilde
ENCODING 732
SWIDTH 707 0
DWIDTH 23 0
BBX 9 5 8 23
BITMAP
7880
FF80
FF80
FF80
8780
ENDCHAR
STARTCHAR hungarumlaut
ENCODING 733
SWIDTH 671 0
DWIDTH 22 0
BBX 12 8 6 23
BITMAP
3180
3DF0
3DE0
7BE0
7BC0
F380
7780
1080
ENDCHAR
STARTCHAR endash
ENCODING 8211
SWIDTH 576 0
DWIDTH 18 0
BBX 15 4 2 10
BITMAP
FFFC
FFFC
FFFC
FFFE
ENDCHAR
STARTCHAR emdash
ENCODING 8212
SWIDTH 993 0
DWIDTH 32 0
BBX 28 5 2 9
BITMAP
FFFFFFF0
FFFFFFF0
FFFFFFF0
FFFFFFF0
07FFFFF0
ENDCHAR
STARTCHAR quoteleft
ENCODING 8216
SWIDTH 261 0
DWIDTH 8 0
BBX 8 10 0 13
BITMAP
0C
1F
1F
3E
3E
7E
7C
FC
1C
04
ENDCHAR
STARTCHAR quoteright
ENCODING 8217
SWIDTH 301 0
DWIDTH 10 0
BBX 8 9 1 14
BITMAP
30
3E
3F
7E
7C
7C
F8
F8
70
ENDCHAR
STARTCHAR quotesinglbase
ENCODING 8218
SWIDTH 332 0
DWIDTH 11 0
BBX 8 9 1 -2
BITMAP
30
3E
3F
7E
7C
7C
F8
F8
70
ENDCHAR
STARTCHAR quotedblleft
ENCODING 8220
SWIDTH 477 0
DWIDTH 15 0
BBX 15 10 0 13
BITMAP
0C18
1F3E
1F3E
3E7C
3E7C
7EFC
7CF8
FDF8
1C38
0408
ENDCHAR
STARTCHAR quotedblright
ENCODING 8221
SWIDTH 477 0
DWIDTH 15 0
BBX 15 9 0 14
BITMAP
1830
3E7C
3F7E
3E7C
7EFC
7CF8
7CF8
F9F0
3860
ENDCHAR
STARTCHAR quotedblbase
ENCODING 8222
SWIDTH 477 0
DWIDTH 15 0
BBX 15 9 0 -2
BITMAP
1830
3E7C
3F7E
3E7C
7EFC
7CF8
7CF8
F9F0
3860
ENDCHAR
STARTCHAR dagger
ENCODING 8224
SWIDTH 487 0
DWIDTH 16 0
BBX 14 36 1 -9
BITMAP
0FC0
0FC0
07C0
07C0
07C0
07C0
07C0
07C0
FFF8
FFFC
FFFC
FFFC
FFF0
0780
0780
0780
0780
0780
0780
0780
0780
0780
0780
0780
0780
0780
0780
0780
0780
0780
0780
0780
0780
0780
0780
0780
ENDCHAR
STARTCHAR daggerdbl
ENCODING 8225
SWIDTH 497 0
DWIDTH 16 0
BBX 14 36 1 -9
BITMAP
0FC0
0FC0
07C0
07C0
07C0
07C0
07C0
07C0
FFF8
FFFC
FFFC
FFFC
FFF0
0780
0780
0780
FFFC
FFFC
FFFC
FFFC
07FC
0780
0780
0780
0780
0780
0780
0780
0780
0780
0780
0780
0780
0780
0780
0780
ENDCHAR
STARTCHAR bullet
ENCODING 8226
SWIDTH 275 0
DWIDTH 9 0
BBX 9 9 0 8
BITMAP
1800
7E00
7F00
FF80
FF80
FF80
FF00
7F00
3E00
ENDCHAR
STARTCHAR ellipsis
ENCODING 8230
SWIDTH 787 0
DWIDTH 25 0
BBX 25 6 0 -3
BITMAP
180C0C00
7C3E1F00
FE7F3F80
FE7F3F80
7E3E1F00
381C0E00
ENDCHAR
STARTCHAR perthousand
ENCODING 8240
SWIDTH 888 0
DWIDTH 28 0
BBX 30 27 0 -2
BITMAP
00020000
0007C000
3F07C000
7F8F8000
F38F8000
E3CF0000
E3DF0000
F39E0000
7FBE0000
3F3E0000
003C0000
007C0000
00780000
00F80000
00F00000
00F00000
01F00000
01E3F3F0
03EFFFF8
03CF3F38
03CE3E3C
078E3F3C
078F7F38
0F07FFF8
0F03F3F0
0F000000
01000000
ENDCHAR
STARTCHAR guilsinglleft
ENCODING 8249
SWIDTH 234 0
DWIDTH 8 0
BBX 7 17 0 -1
BITMAP
02
06
0E
0E
1C
3C
78
78
F8
78
78
3C
1C
0E
0E
06
02
ENDCHAR
STARTCHAR guilsinglright
ENCODING 8250
SWIDTH 223 0
DWIDTH 7 0
BBX 7 17 0 -1
BITMAP
40
40
E0
70
78
38
3C
1E
1E
1E
3C
38
78
70
E0
40
40
ENDCHAR
STARTCHAR fraction
ENCODING 8260
SWIDTH 600 0
DWIDTH 19 0
BBX 21 31 -1 -4
BITMAP
000080
0000C0
0001F0
0001F8
0003F0
0007F0
0007E0
000FE0
000FC0
001F80
003F80
003F00
007F00
007E00
00FC00
00FC00
01F800
03F000
03F000
07E000
07E000
0FC000
0F8000
1F8000
3F0000
3E0000
7E0000
7C0000
FC0000
380000
100000
ENDCHAR
STARTCHAR Euro
ENCODING 8364
SWIDTH 590 0
DWIDTH 19 0
BBX 20 20 -1 1
BITMAP
003E00
00FF80
03FFE0
07C1E0
0781F0
0F81F0
0F01F0
FFF8E0
FFFC00
FFFC00
1F0000
1FFC10
FFFE10
FFFE10
0FC030
07E0E0
07FFE0
03FFC0
00FF00
001C00
ENDCHAR
STARTCHAR trademark
ENCODING 8482
SWIDTH 624 0
DWIDTH 20 0
BBX 21 14 0 10
BITMAP
100000
100000
100000
300000
FE0000
3E0000
702000
77FDE0
70EFE0
70C660
624660
624660
7FE6F8
3C1F00
ENDCHAR
STARTCHAR minus
ENCODING 8722
SWIDTH 549 0
DWIDTH 18 0
BBX 17 6 0 8
BITMAP
FFC000
FFFF80
FFFF80
FFFF80
FFFF80
FE0000
ENDCHAR
STARTCHAR fi
ENCODING 64257
SWIDTH 757 0
DWIDTH 24 0
BBX 28 44 -2 -13
BITMAP
00078000
001FF000
007FF800
00F87C00
00F03E00
01F01F00
01E03F00
01E03F00
01E07F00
01E03F00
03E03E00
01E01C00
01E00000
01E00000
01F00000
3FFFFF00
3FFFFF00
3FFFFF00
01F03F00
01F01F00
01F01F00
00F81F00
00F81F00
00F81E00
00F81E00
00F81E00
00F81E00
00F81E00
00F83F00
0078FFC0
007FFFF0
007C0000
007C0000
007C0000
007C0000
207C0000
787C0000
F87C0000
F8780000
78780000
78F80000
3FF00000
1FE00000
07800000
ENDCHAR
STARTCHAR fl
ENCODING 64258
SWIDTH 776 0
DWIDTH 25 0
BBX 28 44 -2 -13
BITMAP
0007C000
003FF000
007FFC00
00F87C00
00F03E00
01F03E00
01E01F00
01E01F00
01E01F00
01E01F00
03E01F00
01E01F00
01E01F00
01E01F00
01F01F00
3FFF9F00
3FFF9F00
3FFF9F00
01F01F00
01F01F00
01F01F00
00F81F00
00F81F00
00F81F00
00F80F00
00F80F00
00F80F00
00F80F00
00F80F00
00780F00
007C1F80
007C7FC0
007CFFF0
007D0000
007C0000
207C0000
787C0000
F87C0000
F8780000
78780000
78F80000
3FF00000
1FE00000
07800000
ENDCHAR
STARTCHAR .notdef
ENCODING -1
SWIDTH 320 0
DWIDTH 10 0
BBX 1 1 0 0
BITMAP
00
ENDCHAR
ENDFONT
